<?xml version="1.0" encoding="UTF-8" standalone="no"?>
<!-- Created with Inkscape (http://www.inkscape.org/) -->

<svg
   width="63.999691"
   height="51.348"
   viewBox="0 0 16.933251 13.585824"
   version="1.1"
   id="svg6959"
   inkscape:version="1.2.2 (b0a8486541, 2022-12-01)"
   sodipodi:docname="favicon.svg"
   xmlns:inkscape="http://www.inkscape.org/namespaces/inkscape"
   xmlns:sodipodi="http://sodipodi.sourceforge.net/DTD/sodipodi-0.dtd"
   xmlns="http://www.w3.org/2000/svg"
   xmlns:svg="http://www.w3.org/2000/svg">
  <sodipodi:namedview
     id="namedview6961"
     pagecolor="#505050"
     bordercolor="#eeeeee"
     borderopacity="1"
     inkscape:showpageshadow="0"
     inkscape:pageopacity="0"
     inkscape:pagecheckerboard="0"
     inkscape:deskcolor="#505050"
     inkscape:document-units="mm"
     showgrid="false"
     inkscape:zoom="6.8773849"
     inkscape:cx="72.556648"
     inkscape:cy="44.784464"
     inkscape:window-width="1864"
     inkscape:window-height="1131"
     inkscape:window-x="1976"
     inkscape:window-y="32"
     inkscape:window-maximized="1"
     inkscape:current-layer="layer1" />
  <defs
     id="defs6956" />
  <g
     inkscape:label="Layer 1"
     inkscape:groupmode="layer"
     id="layer1"
     transform="translate(-16.941598,-37.187837)">
    <path
       id="path777-5"
       style="fill:#f3ebda;stroke:#f3ebda;stroke-width:0.133148"
       d="m 18.016656,49.767574 c -0.444531,-0.04617 -0.76633,-0.225361 -0.76633,-0.426728 0,-0.206304 0.121257,-0.357717 0.522946,-0.652997 0.36529,-0.268524 0.611291,-0.52332 0.73362,-0.759843 l 0.425512,-0.656182 c 0.08152,0.996391 1.084736,1.078469 1.148797,1.991359 l -0.466239,0.312034 c -0.278547,0.18642 -1.071521,0.247067 -1.598306,0.192357 z m 4.941844,0.554712 c -2.197271,-0.286274 -4.140174,-1.721347 -4.155484,-3.906515 0.0032,-0.300306 0.0041,-0.591025 0.002,-0.646045 -0.003,-0.07863 -0.08927,-0.184157 -0.403245,-0.493169 -0.587535,-0.578247 -0.895585,-1.07991 -1.068403,-1.739906 -0.121927,-0.465641 -0.153326,-1.309982 -0.06716,-1.805993 0.07199,-0.414436 0.300275,-1.106865 0.461884,-1.401003 0.643966,-1.172048 1.64041,-2.018024 2.856,-2.424731 0.764713,-0.255854 1.283701,-0.323538 2.022099,-0.263711 1.2769,0.103458 2.336842,0.582949 3.193614,1.444714 0.295837,0.297561 0.495129,0.561445 0.726688,0.962211 0.371761,0.643421 0.517644,1.20534 0.518365,1.996672 4.38e-4,0.478683 -0.04942,0.954075 -0.100045,0.953936 -0.04742,0.428953 0.162659,0.343429 0.368662,0.739176 -0.01723,-0.04038 0.05274,-0.09094 0.285647,-0.20644 0.169653,-0.08413 0.530618,-0.291872 0.802146,-0.461653 0.271527,-0.16978 0.607662,-0.37602 0.746966,-0.458309 0.320646,-0.189408 0.425681,-0.294883 0.36566,-0.367192 -0.02375,-0.02861 -0.117235,-0.07953 -0.207749,-0.113134 -0.6403,-0.237778 -1.125334,-1.113208 -1.051404,-1.89766 0.03003,-0.31858 0.146958,-0.654782 0.282109,-0.811106 0.112772,-0.130442 0.129279,-0.137427 0.327735,-0.138684 0.177013,-0.0011 0.240843,0.01754 0.417272,0.121969 0.383735,0.227141 0.761523,0.661506 0.883239,1.015512 0.03926,0.114158 0.03628,0.139178 -0.02712,0.228205 -0.170245,0.23905 -0.222149,0.675292 -0.09543,0.801997 0.0654,0.06539 0.08106,0.0678 0.149736,0.02294 0.04218,-0.02755 0.163435,-0.191196 0.269469,-0.363653 0.264845,-0.430768 0.484532,-0.642665 0.848942,-0.818832 0.401276,-0.193993 0.702884,-0.26092 1.195454,-0.265274 0.368765,-0.0033 0.420984,0.0045 0.581317,0.08632 0.225227,0.114933 0.271918,0.22941 0.242638,0.594899 -0.02751,0.343554 -0.130912,0.731392 -0.266715,1.000501 -0.228122,0.452042 -0.805798,0.895007 -1.38517,1.062158 -0.468954,0.135292 -0.475702,0.148212 -0.346013,0.66222 0.09443,0.374277 0.09939,0.43347 0.09931,1.186523 -4.1e-5,0.435927 0.01036,0.110997 -0.02733,0.921034 -0.130961,0.691954 -0.318963,1.531163 -1.141618,2.636658 -0.621857,0.92735 -3.066712,1.696275 -3.769886,1.87554 -0.967528,0.246656 -2.61882,0.372731 -3.534189,0.269829 z"
       sodipodi:nodetypes="ssscccssccssssssssssccssssssssssssssssssssssccssc" />
    <path
       id="path408-2"
       style="fill:#e7aa9c;stroke-width:0.0234752"
       d="m 28.32805,40.52966 c -0.0015,0.0015 -0.0024,0.02473 -0.0041,0.07116 -0.0052,0.142129 0.07599,0.430214 0.180982,0.642821 0.242264,0.490531 0.572168,0.82878 0.870431,0.892458 0.131665,0.02809 0.212209,0.07937 0.212209,0.135019 0,0.01737 0.0053,0.03154 0.01174,0.03154 0.0064,0 0.01174,-0.01545 0.01174,-0.03438 0,-0.05918 -0.16608,-0.221266 -0.434322,-0.423809 -0.372907,-0.28155 -0.59519,-0.506386 -0.684221,-0.692014 -0.07075,-0.147548 -0.139327,-0.394004 -0.156726,-0.563369 -0.0042,-0.04062 -0.0062,-0.06089 -0.0077,-0.05942 z m -2.702726,0.05603 c -0.04918,0.0077 -0.08925,0.0168 -0.157918,0.02366 -0.3073,0.0307 -0.573221,0.09546 -0.742089,0.180775 -0.153695,0.07765 -0.351485,0.266516 -0.432717,0.413127 -0.06404,0.11558 -0.07135,0.165322 -0.06947,0.361779 0.0014,0.154188 0.01669,0.217628 0.06146,0.337771 0.03406,0.05645 0.06432,0.104576 0.09857,0.153616 0.106622,-0.155032 0.307825,-0.336711 0.475176,-0.415007 0.190063,-0.08892 0.42923,-0.112669 0.599991,-0.0596 0.128142,0.03984 0.293204,0.134186 0.461283,0.253946 0.01342,-0.0383 0.01705,-0.0741 0.01898,-0.109344 -0.05016,-0.01022 -0.08424,-0.02367 -0.114221,-0.04388 -0.152714,-0.102916 -0.144351,-0.278763 0.01619,-0.339863 0.0282,-0.01073 0.07237,-0.01632 0.103124,-0.01962 4.2e-5,-0.01472 -9.06e-4,-0.02223 -0.0012,-0.03581 -0.0045,-0.07026 -0.01331,-0.131989 -0.04984,-0.200671 -0.0069,-0.01021 -0.01682,-0.01877 -0.0232,-0.02929 -0.145846,0.06183 -0.209445,0.06932 -0.270993,0.0375 -0.08141,-0.04209 -0.142695,-0.121911 -0.142695,-0.185864 0,-0.05503 0.09328,-0.141828 0.233576,-0.232766 -0.0021,-0.0023 8.44e-4,0.0014 -0.03687,-0.04264 h 4.1e-5 c -0.01431,-0.0167 -0.02291,-0.03293 -0.0271,-0.04782 z m 7.700956,0.56025 c 4.68e-4,0.01702 0.0034,0.01749 0.0085,0.0059 -0.0026,-0.0023 -0.0054,-0.0044 -0.0085,-0.0059 z m -0.01101,0.08514 c -0.0012,1.25e-4 -0.0024,2.04e-4 -0.0038,2.04e-4 -0.0059,5.16e-4 -0.01896,0.01961 -0.04076,0.07396 -0.05517,0.137477 -0.290084,0.386829 -0.500488,0.531275 -0.251107,0.172402 -0.701524,0.391038 -1.051417,0.510276 -0.398211,0.135727 -0.452618,0.166256 -0.488198,0.274028 -0.03058,0.0927 0.03292,0.518938 0.118345,0.794161 0.153347,0.494146 0.204089,1.206305 0.130685,1.833834 -0.02972,0.25404 -0.04153,0.353045 -0.06474,0.39754 0.0024,0.0094 0.0012,0.02166 -0.0056,0.03612 -0.0027,0.0058 -0.0055,0.01152 -0.0082,0.01729 0.02663,-0.0029 0.04714,-0.0072 0.05098,-0.01348 0.0069,-0.01114 0.02981,-0.193381 0.05094,-0.404921 0.07472,-0.747624 0.01031,-1.538906 -0.165847,-2.038174 -0.01964,-0.05565 -0.03572,-0.13014 -0.03572,-0.165508 0,-0.118711 0.157264,-0.258485 0.290893,-0.258485 0.08399,0 0.368331,-0.105203 0.60925,-0.225476 0.340998,-0.170252 0.624777,-0.411754 0.81784,-0.696002 0.08785,-0.129336 0.286538,-0.579557 0.295887,-0.666616 z m -8.971366,0.825201 c 1e-6,8.3e-5 -2e-6,2.03e-4 0,2.97e-4 8.2e-5,-7e-6 2.02e-4,-1.8e-5 2.96e-4,-4.1e-5 1.24e-4,-2.3e-5 4.69e-4,-1.72e-4 3.29e-4,-2.03e-4 -2.04e-4,-2.1e-5 -4.06e-4,-4.2e-5 -5.95e-4,-4.2e-5 z m -5.097869,0.0033 c -0.13218,-0.0018 -0.255681,0.0088 -0.361965,0.01903 -0.08039,0.0078 -0.107456,0.01352 -0.180386,0.02663 -0.122082,0.02567 -0.115512,0.02391 -0.204277,0.07817 -0.07003,0.05418 -0.06039,0.03934 -0.09794,0.117965 0.164705,0.02224 0.221046,0.06276 0.260262,0.156612 0.02837,0.06787 0.02901,0.09235 0.0038,0.144923 -0.05118,0.106789 -0.123767,0.125068 -0.455094,0.108245 -0.01318,0.0784 -0.01844,0.111268 -0.03012,0.233728 -3.28e-4,0.08071 0.0051,0.137203 0.01458,0.206954 0.0743,-0.05372 0.154035,-0.112691 0.202809,-0.137405 0.194286,-0.09843 0.341042,-0.07362 0.418318,0.07074 0.05017,0.09371 0.0023,0.150493 -0.292039,0.346557 -0.08406,0.05598 -0.115676,0.07303 -0.177819,0.111958 0.04172,0.06211 0.081,0.106654 0.120732,0.146985 0.09185,0.07593 0.226436,0.140403 0.376685,0.161198 0.326216,0.04514 0.622294,-0.02776 0.889139,-0.218964 0.496027,-0.355443 0.557511,-0.934865 0.14274,-1.345656 -0.169734,-0.168116 -0.322421,-0.223356 -0.629289,-0.227675 z m -1.917764,1.028577 c -0.0027,0.0053 -0.0057,0.01 -0.0089,0.01412 -0.0093,0.03449 0.03034,0.228935 0.121144,0.581523 0.0928,0.360327 0.365997,0.869752 0.659141,1.228928 0.07049,0.08639 0.254896,0.270414 0.409698,0.408864 0.154819,0.138471 0.145808,0.41944 0.178922,0.475934 0.03773,0.608988 0.09779,1.08744 0.31244,1.681076 0.106875,0.302612 0.329158,0.760132 0.477974,0.983739 0.07035,0.105739 0.207069,0.282791 0.303778,0.393367 0.745352,0.852442 2.022962,1.393667 3.53675,1.498187 h 4.1e-5 c 0.673187,0.04649 1.907778,-0.03499 2.660082,-0.175548 0.410103,-0.07662 0.790685,-0.166248 0.814583,-0.191823 -0.07229,-0.389693 0.300264,-0.945603 0.137017,-0.924862 -0.05789,0.0078 -0.474661,0.04536 -0.700598,0.07871 -0.225938,0.03335 -0.653878,0.07901 -0.950813,0.101456 -0.571139,0.04319 -1.695438,0.05757 -2.019009,0.02586 -0.103293,-0.01008 -0.26707,-0.02353 -0.36389,-0.02975 -0.220572,-0.01418 -0.499335,-0.04932 -0.727783,-0.09178 -0.09684,-0.018 -0.250049,-0.04564 -0.340414,-0.06139 -0.564238,-0.09831 -1.243372,-0.331537 -1.619902,-0.556308 -0.275103,-0.164218 -0.632605,-0.442234 -0.821689,-0.639015 -0.06456,-0.06719 -0.15605,-0.147037 -0.203313,-0.177428 -0.07028,-0.04518 -0.0993,-0.08992 -0.159249,-0.245373 -0.10595,-0.274688 -0.145085,-0.492891 -0.137193,-0.764544 0.0067,-0.232804 0.0067,-0.232821 0.112387,-0.249408 0.498943,-0.07834 0.589482,-0.0982 0.716043,-0.15698 0.258839,-0.120216 0.381485,-0.26528 0.352932,-0.417437 -0.02544,-0.135573 -0.175042,-0.255445 -0.529003,-0.423901 -0.424764,-0.202124 -0.477953,-0.230401 -0.669091,-0.355773 -0.652084,-0.427711 -1.279087,-1.175359 -1.479315,-1.763963 -0.03212,-0.0944 -0.05842,-0.192703 -0.05842,-0.218415 0,-0.01264 -0.0017,-0.02233 -0.0044,-0.02806 z m 14.030347,2.610527 c -0.0051,-1.4e-5 -0.01221,0.0023 -0.0091,0.0016 0.0036,-9.7e-4 0.0072,-0.0012 0.01096,-0.0014 -6.25e-4,-1.24e-4 -0.0012,-1.24e-4 -0.0019,-1.24e-4 z m -0.29589,0.485382 c 4.69e-4,6.09e-4 -0.0038,10e-4 -0.0016,0.0018 4.69e-4,-5.93e-4 0.0011,-0.0012 0.0016,-0.0018 z m 0.249076,0.03943 c -4.3e-5,8.2e-5 0,2.03e-4 0,2.97e-4 4.68e-4,4.2e-5 7.81e-4,4.38e-4 0.0012,4.53e-4 4.69e-4,1.5e-5 -0.0012,-6.72e-4 -0.0011,-7.34e-4 z m 0.01398,2.5e-4 v 4.2e-5 c -0.0042,0.0087 -0.01036,0.02015 -0.0188,0.02394 -7.82e-4,0.0017 -0.0015,0.0035 -0.0025,0.0051 -0.0065,0.0099 -0.0036,0.0032 -0.0051,0.0068 -0.0021,0.0019 -0.0045,0.0037 -0.0065,0.0057 -4.7e-4,4.22e-4 0.002,-7.98e-4 0.0017,-2.97e-4 -0.0011,0.0021 -0.0026,0.004 -0.004,0.006 0,8.4e-5 4.69e-4,-2.49e-4 4.69e-4,-2.49e-4 -0.0027,0.0023 -0.0055,0.0047 -0.0082,0.0069 -0.02053,0.052 -0.06909,0.137249 -0.132518,0.226713 -0.04119,0.05808 -0.118121,0.179574 -0.170939,0.269947 -0.05284,0.09035 -0.124961,0.190723 -0.16021,0.223 -0.03525,0.03227 -0.12287,0.137907 -0.194692,0.234736 -0.198181,0.267173 -0.733117,0.788737 -0.966818,0.942614 -0.277413,0.182649 -0.670628,0.417165 -0.766757,0.457324 -0.04414,0.01844 -0.148665,0.06491 -0.232292,0.103202 -0.08363,0.03828 -0.157635,0.0696 -0.164476,0.0696 -0.0068,0 -0.05721,0.02039 -0.111881,0.0453 -0.05469,0.02491 -0.16876,0.06138 -0.253431,0.08101 -0.156923,0.03639 -1.128322,0.127221 -1.176827,0.127221 -0.234543,0.02713 -0.321512,0.973685 -0.159165,0.932302 0.154085,-0.03492 0.725038,-0.230414 1.656166,-0.600783 0.884032,-0.351646 1.519234,-0.754555 1.869205,-1.185694 0.362113,-0.446107 0.525218,-0.717001 0.818529,-1.359408 0.08585,-0.188035 0.216473,-0.575666 0.204505,-0.606831 -0.002,-0.0052 -0.0099,-0.0096 -0.01542,-0.01425 z m -12.310705,2.329852 c 2.51e-4,3.12e-4 2.4e-5,3.12e-4 2.98e-4,6.25e-4 0.0055,-2.4e-5 0.0038,-3.13e-4 -2.98e-4,-6.25e-4 z m 0.232909,0.182999 c -0.03572,0.125555 -0.460014,0.566922 -0.632886,0.663152 -0.209702,0.116753 -0.271293,0.140877 -0.532035,0.208328 -0.45537,0.03895 -0.803611,0.105144 -0.0333,0.220214 0.222803,0.03213 0.703604,0.0069 0.976273,-0.07158 0.240453,-0.06918 0.748901,-0.21244 0.83171,-0.274229 0.03848,-0.0287 -0.119973,-0.163911 -0.259614,-0.344627 -0.138091,-0.194374 -0.239798,-0.484146 -0.350146,-0.40126 z"
       sodipodi:nodetypes="csccsssccsccccsscccccccscccccscccccccccscccccccscsccssccscsscccssscccccccccsccccccssssscsccccssccccsssscssscssssccsssssccsscscsccsscccscssccccccccscsscsccccsccccccccccsccc" />
    <path
       id="path263-3-7"
       style="fill:#000000;stroke-width:0.0234752"
       d="m 22.843387,37.187837 c -3.512742,0.02919 -4.962917,1.681777 -5.577864,3.363747 -0.0575,0.15292 -0.06694,0.232853 -0.09639,0.315952 -0.162717,0.599678 -0.238976,1.278609 -0.226148,2.04355 0.06986,0.660414 0.001,0.219887 0.08718,0.820134 0.08055,0.312381 0.382092,0.913256 1.106588,1.821147 0.236539,0.296414 0.233272,0.197851 0.236491,0.578505 0.0029,0.335873 0.09289,0.79514 0.232128,1.224547 -0.01365,-0.02428 -0.0025,-0.08474 -0.0062,-0.07899 -0.125641,0.264348 -0.58977,0.845505 -0.970851,1.102615 -0.344882,0.232687 -0.471897,0.357598 -0.572686,0.563317 -0.06817,0.139143 -0.08448,0.187881 -0.08419,0.391244 4.2e-5,0.01722 0.01,0.01594 0.01008,0.03086 0.07371,0.296867 0.216006,0.486321 0.561051,0.720202 0.377891,0.256148 1.165097,0.190213 1.714742,0.06624 0.550844,-0.173592 0.761606,-0.387428 0.849576,-0.449491 0.19393,0.181828 0.40016,0.33553 0.614537,0.436324 1.709525,0.613565 4.215451,0.899567 6.016912,0.317326 0.05287,-0.01865 0.09929,-0.03385 0.103096,-0.03385 0.332244,-0.08896 0.27837,-0.08112 0.503605,-0.164804 1.507365,-0.546358 2.710842,-1.098249 3.414698,-1.88521 0.161131,-0.184728 0.385891,-0.510608 0.51847,-0.751788 0.625685,-1.324958 0.855543,-2.376097 0.598944,-4.106408 l -0.06504,-0.253424 0.06132,-0.03143 c 0.03375,-0.01728 0.172257,-0.07655 0.307835,-0.131761 1.381544,-0.931772 1.449979,-1.258627 1.620049,-1.759508 0.324456,-1.717579 -0.43717,-1.976198 -1.848056,-1.694476 -0.411658,0.08899 -0.748889,0.230373 -1.076045,0.451106 -0.09508,0.06415 -0.182417,0.116655 -0.194156,0.116655 -0.01174,0 -0.0387,-0.0449 -0.05987,-0.09977 -0.07597,-0.196968 -0.485132,-0.67856 -0.74995,-0.882663 -0.316993,-0.244319 -0.64228,-0.379169 -0.927463,-0.384458 -0.229619,-0.0043 -0.416651,0.08839 -0.614537,0.30432 -0.512282,0.558989 -0.596243,1.568194 -0.196577,2.363459 0.132295,0.263246 0.243663,0.414241 0.494473,0.670521 0.107218,0.109553 0.194843,0.204614 0.19472,0.211253 -1.72e-4,0.0066 -0.113748,0.07706 -0.252408,0.156482 -0.138658,0.07942 -0.421115,0.241615 -0.627708,0.360383 -0.206595,0.118773 -0.406222,0.231739 -0.443573,0.251082 -0.06657,0.03447 -0.06757,0.03411 -0.05146,-0.01996 0.0091,-0.03033 0.03755,-0.181949 0.06335,-0.336875 0.14786,-0.888293 -0.05537,-2.044083 -0.500857,-2.848416 -0.229769,-0.41485 -0.495827,-0.76408 -0.862663,-1.132289 -1.074537,-1.053726 -1.874661,-1.425403 -3.30514,-1.635422 z m -0.7102,0.428487 c 0.419067,-0.0055 0.886969,0.03143 1.185607,0.09339 0.49806,0.103339 1.100128,0.317981 1.432116,0.510645 0.95233,0.552657 1.553614,1.177081 2.006581,2.0837 0.108525,0.217215 0.277476,0.675072 0.293857,0.796383 0.0045,0.03322 0.01872,0.107917 0.03167,0.166015 0.104326,0.467856 0.0833,1.432173 -0.03838,1.760234 -0.02137,0.05762 -0.02224,0.05705 -0.07175,-0.03999 -0.09873,-0.193501 -0.403185,-0.564936 -0.689112,-0.840895 -0.233525,-0.225383 -0.334569,-0.304693 -0.512734,-0.40215 -0.122057,-0.06677 -0.264187,-0.132693 -0.315834,-0.146545 -0.207276,-0.05559 -0.44038,-0.01859 -0.670206,0.106475 -0.154616,0.08414 -0.386049,0.329045 -0.456339,0.482936 -0.164338,0.359801 -0.239284,0.983837 -0.176379,1.468033 0.04901,0.377211 0.213662,0.958945 0.416425,1.470942 0.12447,0.314299 0.130865,0.340697 0.12677,0.521875 -0.0051,0.225137 0.02007,0.306995 0.100513,0.327181 0.122571,0.03076 0.258791,-0.122069 0.298058,-0.334452 0.02661,-0.14391 0.0063,-0.267399 -0.07255,-0.440442 -0.225358,-0.494639 -0.309884,-0.779179 -0.443088,-1.491947 -0.0085,-0.04518 -0.015,-0.256421 -0.01454,-0.469445 6.89e-4,-0.326187 0.009,-0.415667 0.0522,-0.567032 0.118143,-0.413704 0.252154,-0.604937 0.468053,-0.667692 0.117488,-0.03415 0.137573,-0.03401 0.246268,0.0015 0.239029,0.07817 0.631282,0.36072 0.892558,0.642891 0.301805,0.325941 0.632968,0.860263 0.82065,1.324155 0.05729,0.141585 0.161517,0.474216 0.172338,0.549987 0.0041,0.02831 0.01367,0.06174 0.02141,0.07424 0.0077,0.01251 0.03028,0.174138 0.05018,0.359252 0.03058,0.284662 0.04365,0.342932 0.08468,0.377672 0.1084,0.09181 0.259884,0.0092 0.291433,-0.158985 0.02852,-0.152023 -0.0067,-0.549875 -0.06965,-0.785801 -0.07634,-0.28621 -0.168859,-0.556925 -0.213706,-0.62536 -0.04291,-0.06548 -0.045,-0.102355 -0.0058,-0.102355 0.07815,0 0.603835,-0.271234 0.886176,-0.457246 0.297288,-0.195862 0.79463,-0.505152 0.812245,-0.505152 0.13549,-0.09671 0.303148,-0.160766 0.433474,-0.262149 0.157792,-0.126787 0.115082,-0.223036 -0.12685,-0.285818 -0.406974,-0.105611 -0.829302,-0.622384 -1.004138,-1.228829 -0.06486,-0.225 -0.08092,-0.67007 -0.03199,-0.887509 0.06673,-0.296578 0.145197,-0.484053 0.259357,-0.619706 0.307712,-0.507479 1.313982,0.396123 1.550482,0.772632 0.08205,0.152862 0.198073,0.339927 0.08209,0.474373 -0.07693,0.0876 -0.123736,0.20728 -0.169592,0.433173 -0.0327,0.161032 -0.0046,0.301109 0.07482,0.372985 0.0992,0.08976 0.197919,-5.31e-4 0.392832,-0.359333 0.153383,-0.282362 0.360544,-0.529277 0.549335,-0.654766 0.449366,-0.298699 0.939743,-0.442498 1.509436,-0.442705 0.280531,-8.3e-5 0.351187,0.0076 0.482112,0.05291 0.08436,0.02917 0.191462,0.08449 0.238027,0.122875 0.07066,0.05824 0.08857,0.09212 0.108105,0.205115 0.05223,0.302114 -0.05364,0.881377 -0.232855,1.273906 -0.118108,0.258707 -0.364457,0.548421 -0.634411,0.746135 -0.260196,0.190564 -0.803139,0.427516 -0.979578,0.427516 -0.04691,0 -0.0971,0.02589 -0.153511,0.07909 -0.100106,0.09439 -0.10536,0.151652 -0.03466,0.380499 0.06376,0.206427 0.151455,0.665744 0.163691,0.857377 0.04185,1.491294 -0.135768,2.15302 -0.524448,3.004009 -0.411096,0.733795 -0.820729,1.296138 -1.378711,1.661917 -0.389183,0.240365 -0.803622,0.424868 -1.220915,0.605731 -1.891262,0.680452 -1.015127,0.406479 -2.299306,0.746378 -0.269636,0.04337 -0.538246,0.09886 -0.811358,0.119238 -1.1559,0.104892 -2.317637,0.03185 -3.449604,-0.238074 -0.962815,-0.295182 -1.828138,-0.938982 -2.698474,-2.40008 -0.0078,0.0076 0.0085,-0.0053 0.0012,0.0017 -0.144205,-0.230079 -0.458307,-0.624828 -0.490678,-1.850311 -0.0058,-0.213295 -0.05022,-0.378605 -0.163855,-0.457487 l -0.0072,-0.0202 c -0.342617,-0.306436 -0.507127,-0.503623 -0.72281,-0.86594 -0.252436,-0.424049 -0.368334,-0.738649 -0.451086,-1.224789 -0.138471,-0.813474 -0.06459,-1.554483 0.238349,-2.390119 0.150434,-0.414961 0.250685,-0.604186 0.5802,-1.095693 0.128261,-0.191315 0.522464,-0.635224 0.714886,-0.805028 0.375212,-0.331102 0.896132,-0.673598 1.322235,-0.869333 0.310502,-0.14263 0.801489,-0.298991 1.198938,-0.381792 0.308298,-0.06423 0.414602,-0.07565 0.7468,-0.07997 z m 1.603971,0.789112 c -0.123911,0.0032 -0.261047,0.05963 -0.332154,0.150019 -0.101226,0.128671 -0.02922,0.365276 0.119982,0.394152 0.230771,0.04467 0.454147,-0.0701 0.50118,-0.257462 0.02012,-0.08017 -0.04948,-0.211492 -0.135738,-0.256091 -0.04343,-0.02245 -0.09695,-0.03204 -0.15327,-0.03061 z m -4.34596,0.885571 c -0.122771,0.0024 -0.310721,0.111163 -0.353162,0.204306 -0.07718,0.169369 0.02017,0.334602 0.213303,0.362001 0.113992,0.01617 0.28541,-0.02625 0.352919,-0.08732 0.218311,-0.197542 0.09043,-0.485068 -0.21306,-0.478977 z m 5.102376,0.380822 c -0.09309,-6.09e-4 -0.184799,0.0096 -0.27091,0.03151 -0.380635,0.09702 -0.632881,0.286945 -0.785341,0.591269 -0.116671,0.23288 -0.135623,0.38955 -0.05891,0.486732 0.02888,0.03658 0.07385,0.07445 0.09994,0.0841 0.06348,0.02348 0.159127,0.0045 0.212737,-0.04217 0.02402,-0.02091 0.07851,-0.107024 0.121033,-0.191381 0.08375,-0.16614 0.246637,-0.334306 0.37635,-0.388497 0.163901,-0.06847 0.309714,-0.08609 0.475567,-0.05744 0.171387,0.02961 0.295939,0.09256 0.50312,0.254151 0.125221,0.09767 0.142057,0.104068 0.243278,0.09266 0.11912,-0.01343 0.266947,-0.103872 0.347748,-0.212788 0.03419,-0.04609 0.04912,-0.101314 0.04912,-0.181283 0,-0.1364 -0.05393,-0.204799 -0.177429,-0.224827 -0.06616,-0.01073 -0.09721,10e-6 -0.171611,0.05913 l -0.0909,0.07214 -0.114731,-0.103164 C 25.0643,39.772653 24.77283,39.673675 24.493568,39.671826 Z m 1.90413,0.71269 c -0.01235,-10e-6 -0.02609,0.0017 -0.0425,0.0048 -0.204625,0.03777 -0.72721,0.309617 -0.818629,0.42582 -0.06426,0.08169 -0.05778,0.138217 0.02538,0.221353 0.05856,0.05855 0.08515,0.06924 0.146727,0.05913 0.07235,-0.01188 0.333485,-0.126044 0.646856,-0.28275 0.220949,-0.110489 0.273336,-0.242681 0.146403,-0.369594 -0.04303,-0.04303 -0.06717,-0.0587 -0.104227,-0.05873 z m -4.264517,0.189442 c -0.264473,0 -0.435976,0.04838 -0.617285,0.173932 -0.133802,0.09265 -0.228234,0.244188 -0.227361,0.365069 0.0014,0.204312 0.175072,0.382777 0.423615,0.435515 l 0.144868,0.03078 -0.01462,0.124813 c -0.04161,0.353947 -0.231624,0.598431 -0.505786,0.650808 -0.145956,0.02789 -0.23486,-0.006 -0.363341,-0.138627 -0.139095,-0.143557 -0.197048,-0.16741 -0.289898,-0.119401 -0.08603,0.04448 -0.118275,0.120751 -0.09865,0.233308 0.02804,0.160861 0.181346,0.311631 0.398812,0.392133 0.195933,0.07253 0.478308,0.05622 0.680548,-0.03934 0.193143,-0.09126 0.359175,-0.2386 0.449713,-0.398999 0.0694,-0.12295 0.105005,-0.14752 0.149716,-0.103486 0.05638,0.05553 0.322642,0.165905 0.462236,0.191622 0.444836,0.08195 0.933442,-0.249281 0.933442,-0.632792 0,-0.103252 -0.0091,-0.123796 -0.08298,-0.188715 -0.08214,-0.07211 -0.13741,-0.08552 -0.239804,-0.05808 -0.04195,0.01124 -0.05284,0.03097 -0.05284,0.0959 0,0.368696 -0.521,0.506985 -0.819356,0.217475 -0.08934,-0.08668 -0.190115,-0.248602 -0.190115,-0.30545 0,-0.01438 0.05872,-0.07975 0.130486,-0.145333 0.218205,-0.199399 0.271227,-0.371649 0.174925,-0.568245 -0.02571,-0.05249 -0.08648,-0.121863 -0.135011,-0.154139 -0.07862,-0.05228 -0.112596,-0.05873 -0.311309,-0.05873 z m -2.584598,0.178294 c -0.207861,0.0013 -0.351155,0.04228 -0.564525,0.153977 -0.210709,0.110302 -0.374299,0.279177 -0.45545,0.470091 -0.0607,0.142794 -0.0687,0.151472 -0.12588,0.136446 -0.03357,-0.0089 -0.108784,-0.0212 -0.167168,-0.02747 -0.151171,-0.01623 -0.199727,0.04628 -0.189953,0.2447 0.0036,0.07293 0.156924,0.236244 0.246025,0.262068 0.04044,0.01172 0.137971,0.02226 0.216696,0.02343 0.172802,0.0025 0.204706,-0.02063 0.315349,-0.229431 0.104201,-0.196642 0.247223,-0.352642 0.401962,-0.438343 0.117813,-0.06524 0.14148,-0.06956 0.383783,-0.06956 0.291381,0 0.376651,0.03012 0.528248,0.186453 0.165287,0.170467 0.299216,0.188484 0.411334,0.05525 0.08018,-0.09528 0.07885,-0.225286 -0.0033,-0.322818 -0.08645,-0.102729 -0.325482,-0.268435 -0.516209,-0.35788 -0.13924,-0.0653 -0.193409,-0.07722 -0.38758,-0.08515 -0.03273,-0.0013 -0.0637,-0.0019 -0.09341,-0.0017 z m 2.498388,0.06285 c 0.0613,-3.75e-4 0.107256,0.01204 0.118447,0.0412 0.01842,0.048 -0.09569,0.116503 -0.292967,0.17579 -0.186326,0.056 -0.21764,0.05727 -0.256126,0.0109 -0.02417,-0.02912 -0.02219,-0.04377 0.01058,-0.07997 0.07616,-0.08414 0.285203,-0.147086 0.420061,-0.147918 z M 25.99049,41.3432 c -0.183692,-2.51e-4 -0.228075,0.03207 -0.237623,0.130872 -0.01556,0.161011 0.12164,0.260241 0.364797,0.263926 0.07466,0.0011 0.188574,0.0092 0.253134,0.01786 0.159474,0.02146 0.248262,0.0071 0.311067,-0.05024 0.06892,-0.06296 0.0676,-0.158844 -0.0031,-0.22523 -0.08228,-0.07729 -0.241518,-0.116404 -0.537619,-0.132165 -0.05852,-0.0032 -0.108296,-0.005 -0.150685,-0.005 z m -7.959581,0.947533 c -0.143866,2.4e-5 -0.281642,0.0059 -0.342497,0.01761 -0.07396,0.01422 -0.09597,0.03206 -0.124911,0.101303 -0.06951,0.166337 0.0037,0.235089 0.281575,0.264653 v 8.3e-5 c 0.07947,0.0084 0.274001,0.01763 0.432342,0.02043 0.27861,0.0049 0.289786,0.0032 0.346294,-0.05332 0.13238,-0.132362 0.0245,-0.300818 -0.213464,-0.333321 -0.08548,-0.01168 -0.235472,-0.01747 -0.379339,-0.01745 z m 0.592803,0.677547 c -0.10854,0.0019 -0.266824,0.0792 -0.481547,0.23444 -0.27295,0.197327 -0.315049,0.288746 -0.183812,0.399161 0.06173,0.05194 0.08877,0.06001 0.158442,0.04742 0.198065,-0.07638 0.650738,-0.365245 0.697678,-0.475747 0.01725,-0.06681 -0.04484,-0.164728 -0.123458,-0.194612 -0.01983,-0.0075 -0.04226,-0.01111 -0.06731,-0.01066 z m 0.167087,4.872739 c 0.01846,0.03928 0.0363,0.07991 0.05567,0.116976 -2.04e-4,1.57e-4 -3.4e-5,2.7e-5 -2.51e-4,3.14e-4 0.188547,0.350885 0.531839,0.935628 0.961397,1.429337 -0.58378,0.450514 -1.874067,0.708036 -2.401916,0.117462 -0.10456,-0.124246 -0.07212,-0.310798 0.09226,-0.530195 0.03014,-0.04023 0.174185,-0.152288 0.320115,-0.249062 0.145929,-0.09677 0.336332,-0.241451 0.42305,-0.321446 0.03506,-0.03234 0.471953,-0.479411 0.549658,-0.563315 z"
       sodipodi:nodetypes="cccccssccssccsccccccccccccccsssssssscssssssccsscsscsssssssssssssssssssssssssssssccssscccsssscssssssssccccccccccccssssssssssssssssssssssssssssssssscccsssssssssssscccsssssssssssssssssssssssssssssssscssssssssscsssssscsssscsssssssscssccccsssccsssss" />
  </g>
</svg>
