<?xml version="1.0" encoding="UTF-8" standalone="no"?>
<!-- Created with Inkscape (http://www.inkscape.org/) -->

<svg
   version="1.1"
   id="svg116"
   width="510.16815"
   height="496.05292"
   viewBox="0 0 510.16815 496.05291"
   sodipodi:docname="favicon.svg"
   inkscape:version="1.2.2 (b0a8486541, 2022-12-01)"
   xml:space="preserve"
   xmlns:inkscape="http://www.inkscape.org/namespaces/inkscape"
   xmlns:sodipodi="http://sodipodi.sourceforge.net/DTD/sodipodi-0.dtd"
   xmlns="http://www.w3.org/2000/svg"
   xmlns:svg="http://www.w3.org/2000/svg"><defs
     id="defs120" /><sodipodi:namedview
     id="namedview118"
     pagecolor="#505050"
     bordercolor="#eeeeee"
     borderopacity="1"
     inkscape:showpageshadow="0"
     inkscape:pageopacity="0"
     inkscape:pagecheckerboard="0"
     inkscape:deskcolor="#505050"
     showgrid="false"
     inkscape:zoom="0.5"
     inkscape:cx="-295"
     inkscape:cy="578"
     inkscape:window-width="1920"
     inkscape:window-height="1043"
     inkscape:window-x="0"
     inkscape:window-y="0"
     inkscape:window-maximized="1"
     inkscape:current-layer="g122" /><g
     inkscape:groupmode="layer"
     inkscape:label="Image"
     id="g122"
     transform="translate(-63.595065,-74.511644)"><path
       style="fill:#000000;stroke-width:0.567515"
       d="m 256.70661,570.25393 c -7.12445,-1.29687 -10.89828,-4.77873 -15.35466,-14.16671 -3.40451,-7.17204 -4.28897,-7.88009 -8.82071,-7.0613 -2.65439,0.47959 -2.75327,0.57385 -4.97824,4.74567 -4.11972,7.72447 -7.59089,12.10679 -10.97629,13.85744 -5.32988,2.7562 -14.24939,3.34732 -20.33977,1.34799 -5.11244,-1.67829 -7.06625,-3.8144 -11.48126,-12.5525 -3.88624,-7.69156 -3.94411,-7.74225 -8.84656,-7.74894 -2.57666,-0.003 -2.95491,0.16848 -4.11359,1.87049 -0.70181,1.03089 -1.93178,3.23368 -2.73326,4.89508 -2.20874,4.57849 -5.73055,9.01666 -8.59798,10.83513 -7.95879,5.04731 -22.56435,3.60395 -27.19329,-2.68732 -2.92558,-3.97621 -5.51464,-10.61089 -6.16699,-15.80342 -0.41424,-3.29716 -0.67652,-3.81733 -2.37583,-4.71178 -2.10251,-1.10667 -5.1508,-0.73561 -11.34563,1.38109 -10.66779,3.64506 -19.449223,3.13163 -25.940512,-1.51669 -5.195785,-3.72061 -8.931016,-11.48023 -8.936252,-18.56426 -0.0043,-5.85616 0.319612,-6.94607 4.334824,-14.58473 4.669711,-8.88381 5.167888,-10.73736 3.758923,-13.98576 -1.33778,-3.08428 -2.485915,-4.10173 -8.87054,-7.86085 -6.11548,-3.60065 -8.341626,-5.59261 -10.467942,-9.36673 -2.915813,-5.17544 -3.64333,-9.48494 -2.83983,-16.82193 0.866656,-7.91369 4.025806,-12.2997 13.221194,-18.35568 3.342436,-2.20129 5.028156,-3.68477 5.266586,-4.63475 0.497433,-1.98193 -0.283985,-8.19946 -1.210413,-9.63093 -0.428746,-0.66247 -3.374622,-2.80835 -6.546391,-4.76861 -4.051139,-2.50374 -6.330267,-4.34035 -7.660604,-6.17319 -3.426385,-4.72066 -4.413182,-11.20098 -3.04673,-20.00797 1.039295,-6.69843 3.550413,-10.01917 11.157704,-14.75515 6.429263,-4.00258 7.73905,-5.74787 7.398198,-9.8581 -0.306618,-3.69743 -1.528493,-5.2302 -6.527928,-8.18895 -6.704601,-3.96789 -8.653606,-5.68844 -10.429981,-9.20742 -3.625923,-7.18291 -3.160458,-20.12694 0.977659,-27.18756 1.955949,-3.33732 3.382446,-4.4517 11.109164,-8.67852 2.093177,-1.14506 3.992579,-2.38417 4.220894,-2.75359 0.228315,-0.36942 0.415117,-2.26939 0.415117,-4.22215 0,-4.36865 -0.482381,-4.97434 -7.023,-8.81837 -6.991304,-4.1089 -8.256987,-5.20359 -9.9006,-8.56301 -1.754345,-3.58576 -2.051379,-5.32164 -2.030644,-11.86721 0.02725,-8.60228 1.969981,-14.45109 5.965216,-17.95896 1.128644,-0.99096 4.145781,-2.84761 6.70475,-4.12588 2.55897,-1.27827 5.09959,-2.71867 5.645824,-3.20088 1.731806,-1.52882 0.970905,-8.64816 -1.191435,-11.14761 -0.515211,-0.59554 -3.430296,-2.70959 -6.477966,-4.69789 -6.170541,-4.02567 -8.410006,-6.61035 -9.764524,-11.26973 -1.822866,-6.27043 -0.924477,-16.09217 2.002266,-21.89001 1.862099,-3.6888 3.297009,-4.89674 10.268272,-8.64404 5.459636,-2.93475 6.343027,-4.20391 5.628246,-8.08608 -0.669531,-3.6364 -1.508814,-4.58816 -7.721858,-8.75665 -3.71357,-2.49153 -6.483657,-4.80768 -7.392569,-6.18114 -4.126213,-6.23513 -4.190164,-17.4465 -0.14532,-25.47633 2.167892,-4.3037 4.250194,-6.05113 11.985502,-10.05796 6.217314,-3.22052 7.169111,-4.26901 7.27018,-8.00873 0.04421,-1.63505 -0.597265,-3.32551 -2.533843,-6.67762 -5.422351,-9.3858 -6.338247,-16.11502 -3.061982,-22.49683 2.392094,-4.65954 6.283154,-8.511909 10.886264,-10.778014 6.572847,-3.235801 11.709811,-2.86678 21.557041,1.548596 10.09842,4.527998 11.41733,4.487208 12.99634,-0.40192 0.52509,-1.625869 0.95472,-3.346915 0.95472,-3.824553 0,-0.477638 0.89238,-2.723761 1.98306,-4.99138 3.51789,-7.313996 9.26763,-10.940812 18.16373,-11.457297 5.30897,-0.308225 10.24511,1.056544 14.26647,3.944468 2.63475,1.892133 6.43323,6.935084 8.15429,10.825834 1.73187,3.915179 2.64952,4.461447 7.16505,4.265268 l 3.89758,-0.169335 2.83758,-5.553521 c 3.47521,-6.801454 6.08348,-9.636975 10.98717,-11.944447 3.49865,-1.646316 4.21481,-1.774036 10.01089,-1.785356 5.90068,-0.01153 6.46029,0.09074 10.21527,1.866711 4.94539,2.338991 8.26957,5.774144 11.63068,12.018925 2.69464,5.006517 3.79949,5.857426 7.46979,5.752884 3.41048,-0.09714 4.86718,-0.92312 5.32054,-3.016859 0.58403,-2.697178 3.25625,-7.766361 5.42234,-10.28615 2.51512,-2.925813 5.73732,-4.71344 10.85547,-6.022442 4.78061,-1.222675 7.82484,-1.186375 12.39063,0.147748 7.09555,2.073313 11.53634,6.162782 15.59695,14.363024 2.1104,4.261863 2.75184,4.727742 6.50936,4.727742 3.86732,0 4.30949,-0.37695 7.19173,-6.130932 1.50688,-3.008277 3.71936,-6.453225 4.91662,-7.655441 4.18408,-4.201416 11.02205,-6.364042 18.79828,-5.945283 8.83371,0.475707 14.853,4.762767 19.38205,13.804276 1.18148,2.358646 2.49155,4.573447 2.91128,4.921788 1.15219,0.956235 6.47475,1.076151 7.86274,0.177144 0.65442,-0.423871 1.53511,-1.620448 1.95709,-2.659064 2.2091,-5.43718 7.40821,-11.809911 11.19048,-13.716589 3.15444,-1.590183 9.75759,-2.798293 13.66047,-2.499316 8.71695,0.667754 15.0059,5.158483 18.99427,13.563179 2.31542,4.879276 2.72487,5.297358 5.71655,5.837145 3.62811,0.654612 4.90642,-0.281885 7.37392,-5.402144 2.95035,-6.122214 7.36306,-10.708056 11.9918,-12.462268 4.97588,-1.885779 13.04274,-2.16256 17.49664,-0.600326 6.26532,2.1976 10.17469,6.073576 14.21819,14.096733 1.78062,3.533111 4.23572,4.895368 7.79644,4.325986 2.12798,-0.340282 2.30191,-0.538561 4.4003,-5.016414 3.45916,-7.381631 7.39835,-10.984369 14.21986,-13.00529 4.27592,-1.266773 10.99643,-1.182447 14.97958,0.187958 7.09607,2.441407 10.66606,6.437597 14.33134,16.042271 1.09494,2.869232 2.26631,5.548755 2.60305,5.954499 1.12585,1.356566 4.47283,0.827387 8.37135,-1.323564 5.18876,-2.86283 10.63924,-4.751458 13.66503,-4.735034 8.68437,0.04716 16.78278,5.23115 20.70926,13.25657 2.90419,5.93596 2.42991,11.45437 -1.68707,19.62962 -2.64955,5.2613 -3.24432,7.77125 -2.49588,10.53274 0.8325,3.07166 2.18018,4.37084 7.78871,7.50847 2.64353,1.4789 6.03599,3.79092 7.53879,5.13784 5.4573,4.89119 8.18803,13.76811 6.79282,22.08181 -1.24229,7.40244 -3.2829,10.36059 -9.22896,13.37866 -7.2785,3.69438 -9.35526,6.52784 -8.32501,11.35837 0.63872,2.99473 1.25231,3.59244 8.70435,8.47915 6.71538,4.40363 9.19718,9.18385 9.52702,18.35003 0.34991,9.72393 -2.34343,15.74519 -8.67575,19.39563 -5.92263,3.41426 -8.43855,5.35758 -9.30783,7.18945 -1.19136,2.51062 -1.19794,8.16741 -0.0115,9.86135 0.49279,0.70356 3.74891,3.15551 7.23582,5.44877 6.87859,4.52389 8.31166,6.26105 9.79831,11.87742 1.0445,3.94599 0.73714,13.80752 -0.57081,18.31428 -1.27988,4.41003 -2.51529,5.70323 -10.29263,10.77423 -3.49285,2.27741 -6.4702,4.60156 -6.61634,5.16478 -0.55089,2.12301 0.0756,6.56391 1.08361,7.68159 0.56093,0.62194 3.2641,2.66905 6.00706,4.54915 9.33493,6.39838 10.90325,9.48022 10.90325,21.42543 0,12.59042 -2.00985,16.51517 -11.03339,21.5455 -4.65853,2.59697 -6.07433,4.10498 -7.19662,7.66531 -1.43789,4.56151 -0.85488,5.58458 5.74973,10.0896 3.08882,2.10689 6.43,4.61964 7.42484,5.58388 4.33225,4.19898 6.48346,11.79836 5.3494,18.89731 -0.81546,5.10455 -2.63577,9.99364 -4.42024,11.87209 -2.12489,2.2368 -9.60301,7.51335 -15.12934,10.67526 -3.90672,2.23524 -4.60472,2.86252 -4.74806,4.267 -0.21025,2.05994 1.57915,3.86129 6.69447,6.73923 5.37715,3.02526 12.2769,8.12599 13.9381,10.30393 4.06825,5.33376 4.99666,13.58466 2.51169,22.32186 -1.98552,6.98117 -3.8833,9.03521 -13.10851,14.18788 -4.90098,2.73741 -6.71283,4.3647 -7.85794,7.05752 -1.36785,3.21658 -0.93773,7.06168 1.36684,12.21908 3.10102,6.93978 3.86322,9.67249 4.14917,14.87597 0.21894,3.9843 0.0329,5.71946 -0.97361,9.08024 -2.88556,9.63508 -8.71955,14.55087 -18.84558,15.87955 l -4.73204,0.62091 -7.74087,-2.6259 c -11.38181,-3.86101 -12.2941,-3.67041 -14.123,2.9507 -1.40417,5.08342 -3.80942,10.40427 -6.07326,13.43515 -4.97959,6.66674 -17.60889,9.46567 -26.94666,5.97196 -3.97901,-1.48873 -7.2819,-4.95801 -10.37463,-10.89727 -3.69576,-7.09732 -3.8787,-7.27627 -7.43792,-7.27627 h -3.09845 l -2.25962,4.682 c -5.21516,10.80595 -10.05592,14.58961 -20.47939,16.0072 -5.76698,0.7843 -14.18804,-1.84094 -17.57632,-5.47938 -2.37259,-2.54776 -5.04558,-6.78106 -7.18497,-11.37909 -1.01377,-2.17883 -2.16232,-3.86132 -2.66346,-3.90167 -2.83395,-0.22817 -4.64621,-0.25286 -5.20562,-0.0709 -0.34963,0.1137 -1.99759,2.92011 -3.66215,6.23645 -5.76551,11.48685 -10.47736,14.641 -21.80787,14.59837 -10.84312,-0.0408 -15.67643,-3.33548 -21.04623,-14.3465 -3.09754,-6.35163 -4.23573,-7.29672 -8.018,-6.65771 -1.19477,0.20185 -2.43103,0.546 -2.74723,0.76477 -0.31621,0.21877 -1.57816,2.36851 -2.80435,4.7772 -3.27876,6.44074 -5.97206,10.07572 -9.02366,12.17868 -3.8352,2.64297 -6.57489,3.3107 -13.3958,3.2649 -10.8871,-0.0731 -14.59581,-2.57263 -20.68147,-13.93841 l -3.45202,-6.44709 -3.3149,-0.46295 c -4.1743,-0.58298 -4.48904,-0.32182 -8.73314,7.24621 -4.18946,7.47061 -7.74451,11.04946 -12.6321,12.71669 -4.23323,1.44401 -9.33043,1.92335 -13.11894,1.23372 z M 210.9889,557.96879 c 1.87301,-0.89708 2.54984,-1.81874 5.03491,-6.85625 2.122,-4.30151 3.6448,-6.55166 5.83694,-8.62489 7.23609,-6.84359 18.49419,-6.40677 24.57988,0.9537 2.51931,3.04702 3.38169,4.53448 5.7541,9.92483 1.53342,3.48409 1.95001,3.9638 4.37297,5.0356 2.12622,0.94052 3.41808,1.12525 6.26895,0.89641 4.75426,-0.38163 6.1986,-1.43701 8.2168,-6.00403 2.59024,-5.86153 2.87297,-6.33729 5.51343,-9.27784 4.50388,-5.01575 10.03367,-7.05557 16.62042,-6.13091 6.48537,0.91042 10.48763,4.52317 15.46731,13.96197 3.66289,6.9429 4.89971,7.79055 10.83584,7.42629 5.7529,-0.35302 6.65482,-0.94914 9.07389,-5.99732 3.57876,-7.46823 4.0925,-8.28354 6.78149,-10.76217 6.27044,-5.77989 15.06886,-6.66416 21.7108,-2.18201 2.88054,1.94386 7.55234,8.02382 8.60648,11.20059 1.87025,5.63628 4.50703,7.51744 10.57886,7.54725 6.16363,0.0303 8.03608,-1.34421 9.93767,-7.29472 0.8225,-2.57379 3.29004,-6.46432 5.89315,-9.29162 4.47434,-4.85971 12.51242,-6.09791 18.89174,-2.91013 4.12578,2.06168 7.03496,5.36097 10.3325,11.71805 1.31918,2.54316 2.83057,4.99697 3.35864,5.45291 1.61489,1.39431 4.38346,2.03975 8.14954,1.8999 5.87898,-0.21831 6.36989,-0.61142 9.81605,-7.86067 4.89067,-10.28787 8.10335,-12.62877 17.3292,-12.62681 4.42468,10e-4 5.79912,0.21926 7.66533,1.21762 3.75375,2.00811 7.81121,6.81019 10.3727,12.27626 2.51338,5.36341 2.99237,5.75095 7.90357,6.39463 2.03876,0.2672 3.50751,0.0596 5.87781,-0.83091 3.71896,-1.39714 4.95594,-3.19399 6.47926,-9.41184 2.7554,-11.24696 7.69487,-15.83783 17.03405,-15.83187 3.9627,0.002 5.22582,0.28259 9.93152,2.20197 9.39049,3.83024 16.41026,2.82743 19.19158,-2.74163 1.08539,-2.17329 1.27253,-3.39689 1.20163,-7.85672 -0.0723,-4.55033 -0.35699,-5.9905 -2.05364,-10.39017 -3.84391,-9.96785 -3.8557,-10.01512 -3.82306,-15.32291 0.0568,-9.23187 3.01381,-13.15792 14.143,-18.77763 l 6.81019,-3.43881 0.37581,-2.51214 c 0.30536,-2.04126 1.10438,-9.0317 1.16286,-10.1736 0.008,-0.15607 -0.0285,-0.41145 -0.0812,-0.56752 -0.0527,-0.15607 -0.19127,-1.39152 -0.30804,-2.74545 -0.26046,-3.02035 -1.07148,-3.95085 -5.99063,-6.87327 -2.12446,-1.26212 -5.01929,-3.17764 -6.43296,-4.25671 -2.38975,-1.82414 -2.59501,-1.88409 -2.92213,-0.85345 -0.1935,0.60969 -0.60507,1.10852 -0.91459,1.10852 -0.30952,0 -0.40781,0.25072 -0.21841,0.55717 1.04938,1.69794 -8.90543,23.52227 -14.8396,32.53343 -6.74174,10.23747 -16.50173,20.06087 -26.55532,26.72784 -8.1611,5.41198 -13.49866,7.90269 -21.5568,10.05925 -8.79736,2.35439 -17.49206,3.29351 -30.68189,3.31396 -11.63874,0.0181 -14.76098,-0.33854 -24.9708,-2.85195 -5.76278,-1.41866 -7.14029,-1.45428 -13.14137,-0.33988 -4.07363,0.75649 -19.89838,0.82851 -131.94727,0.60053 -70.02518,-0.14248 -128.21235,-0.37465 -129.30481,-0.51594 -5.22606,-0.67586 -7.55455,-1.4148 -13.21935,-4.1951 -3.36355,-1.65085 -6.80898,-3.55862 -7.65652,-4.23949 -0.84754,-0.68088 -2.27717,-1.61207 -3.17696,-2.06931 -4.47424,-2.27364 -12.29443,-14.00964 -15.12067,-22.69203 -2.8207,-8.66537 -2.69459,-0.9468 -2.68065,-164.07595 0.0133,-155.96772 0.0394,-158.11044 2.01508,-165.65036 1.62631,-6.20654 5.14303,-11.69874 12.50169,-19.52433 5.96434,-6.3428 15.98745,-11.64052 24.52527,-12.96284 3.68259,-0.57035 14.49816,-0.71787 46.51077,-0.63439 22.94181,0.0598 46.18155,0.25709 51.64388,0.43836 5.46234,0.18127 11.91098,0.39461 14.33032,0.47409 2.56085,0.0841 4.4776,-0.0926 4.58742,-0.42301 0.21558,-0.64863 214.3798,-0.67853 219.83766,-0.0307 4.12604,0.48975 7.18987,1.27278 10.1,2.58127 1.24854,0.56139 3.25439,1.42833 4.45746,1.92654 7.63067,3.16 16.61522,11.88786 20.80156,20.20725 4.56182,9.06556 5.12861,12.34194 5.12428,29.6218 -0.002,9.49349 0.26708,15.80786 0.83555,19.57927 1.24842,8.28251 0.91277,18.84335 -0.85332,26.84851 -0.87197,3.95242 -1.04481,6.81358 -0.52789,8.7387 0.25997,0.96818 0.56504,30.36309 0.67795,65.32202 0.19336,59.87299 0.26459,63.67698 1.22729,65.54801 0.56211,1.09246 1.56675,2.57891 2.23254,3.30321 3.2467,3.53203 11.16009,18.01755 13.30124,24.348 2.71229,8.01911 4.12088,14.05935 5.19804,22.29012 0.34723,2.65313 0.73853,5.13606 0.86958,5.51763 0.33123,0.9644 6.08185,-2.33807 9.11376,-5.23387 2.76697,-2.64275 3.41248,-5.30404 2.79727,-11.53263 -0.74434,-7.53611 -0.65745,-7.41174 -7.38735,-10.57472 -6.73401,-3.1649 -8.42324,-4.83513 -9.68569,-9.57669 -1.15045,-4.32095 -0.97036,-8.2655 0.58759,-12.87043 2.36633,-6.99426 5.53251,-10.47557 12.64884,-13.90777 1.63055,-0.78641 3.24008,-1.94453 3.57675,-2.57359 0.78995,-1.47603 1.04337,-10.77946 0.39286,-14.42191 -0.70519,-3.94852 -1.67472,-5.52604 -4.18751,-6.81339 -4.38931,-2.24872 -8.50787,-5.34732 -10.03333,-7.54858 -3.49773,-5.04722 -4.60855,-11.09357 -3.12239,-16.99564 0.96066,-3.81514 5.78764,-8.44324 12.03451,-11.53869 5.41345,-2.68246 5.36834,-2.60155 5.67951,-10.18815 0.22052,-5.37637 -1.96664,-12.48533 -3.84127,-12.48533 -0.36413,0 -2.62454,-1.16791 -5.02314,-2.59535 -3.47539,-2.06826 -4.81946,-3.28176 -6.61804,-5.97516 -2.58323,-3.86842 -3.14834,-6.49641 -2.77686,-12.91347 0.44464,-7.68092 3.03085,-11.14193 12.95049,-17.33105 4.73092,-2.95174 4.82058,-3.04976 5.19768,-5.68191 0.44888,-3.13332 0.2117,-7.16836 -0.67141,-11.42226 l -0.63007,-3.03507 -4.86466,-2.72935 c -8.69085,-4.87606 -12.58418,-11.05125 -11.92498,-18.91416 0.18102,-2.15926 0.82501,-5.01941 1.43108,-6.35589 1.54864,-3.41499 5.85068,-7.32803 11.16869,-10.15878 2.49707,-1.32917 4.70295,-2.65639 4.90197,-2.94937 0.49454,-0.72802 0.12154,-7.94726 -0.59995,-11.61206 -0.80672,-4.09764 -1.49676,-5.1878 -3.92206,-6.19622 -3.23704,-1.34594 -9.58511,-5.17589 -11.79507,-7.11626 -1.09931,-0.96521 -2.80925,-3.30935 -3.79987,-5.2092 -1.61335,-3.09417 -1.80047,-3.95713 -1.79499,-8.27814 0.006,-4.70326 0.0875,-4.99236 3.25854,-11.56196 1.86687,-3.86765 3.24709,-7.49408 3.23994,-8.51273 -0.0306,-4.35441 -4.98123,-10.46847 -8.64378,-10.67509 -3.44876,-0.19456 -4.28731,0.0186 -9.0244,2.29421 -8.47565,4.07151 -15.6838,5.16232 -20.38142,3.08431 -4.42488,-1.95736 -6.62193,-5.22408 -10.48679,-15.592506 -1.38713,-3.721305 -1.93681,-4.534365 -3.75714,-5.557454 -4.46968,-2.512098 -11.21077,-1.965736 -14.11577,1.144075 -0.83633,0.895301 -2.57232,3.398105 -3.85773,5.56178 -4.71572,7.937725 -10.76607,11.417375 -18.5831,10.687415 -6.43235,-0.60066 -10.05348,-3.47821 -13.83352,-10.99288 -1.06836,-2.123875 -2.41752,-4.55751 -2.99815,-5.408073 -2.31201,-3.386906 -12.50755,-4.06282 -16.12944,-1.069302 -0.6747,0.557644 -2.53553,3.196257 -4.13518,5.863584 -5.13953,8.569851 -8.79638,11.198941 -16.20367,11.649641 -7.58113,0.46127 -12.0129,-2.74876 -17.27741,-12.514392 -2.09156,-3.879819 -3.33071,-5.556856 -4.44532,-6.016166 -2.21962,-0.914663 -6.16992,-1.150523 -9.77436,-0.583592 -3.38852,0.532972 -5.07649,1.970901 -7.15937,6.098875 -2.26606,4.490991 -5.97446,9.183535 -8.32536,10.534745 -1.3156,0.75617 -4.24287,1.6963 -6.50504,2.08918 -5.01972,0.87179 -8.91432,0.17304 -12.81176,-2.29865 -2.63241,-1.66941 -3.37099,-2.629327 -7.82873,-10.174713 -3.51745,-5.953787 -4.52066,-6.569146 -10.71293,-6.571189 -6.12303,-0.002 -7.15258,0.607035 -10.63506,6.291455 -5.8826,9.602107 -10.62338,12.899677 -18.59521,12.934377 -3.79982,0.0165 -5.05776,-0.23066 -7.71475,-1.51608 -3.94971,-1.91082 -4.47286,-2.48624 -9.04916,-9.953467 -2.45032,-3.998218 -4.2537,-6.316492 -5.30832,-6.82394 -2.38298,-1.146615 -7.6285,-1.404949 -10.55976,-0.520052 -2.27328,0.686268 -2.81537,1.204375 -4.93698,4.718605 -4.17067,6.908288 -6.06386,9.306474 -8.70774,11.030454 -5.47179,3.56795 -11.07995,4.34175 -16.57269,2.28666 -3.07064,-1.14887 -6.92866,-4.551968 -8.44666,-7.450659 -4.16495,-7.953162 -5.84188,-9.819729 -9.64084,-10.731085 -3.14467,-0.754397 -6.77836,-0.45937 -9.77781,0.793882 -1.52043,0.635273 -2.76363,2.159862 -5.95389,7.301481 -5.56808,8.973831 -9.18221,11.355171 -17.24356,11.361751 -3.62886,0.003 -4.92771,-0.26354 -7.55929,-1.55105 -3.50916,-1.71687 -7.03658,-5.686109 -9.52928,-10.722846 -2.19596,-4.43714 -4.32031,-6.440523 -7.30381,-6.887928 -3.09304,-0.463829 -6.31354,0.0036 -8.95561,1.299877 -1.80519,0.885662 -2.24531,1.635671 -4.82885,8.228694 -1.56345,3.989813 -3.55631,8.140383 -4.42858,9.223483 -3.02043,3.75047 -9.37223,5.77547 -14.88525,4.74552 -1.54883,-0.28935 -5.50946,-1.79914 -8.80141,-3.35508 -4.59504,-2.17185 -6.61938,-2.82898 -8.71485,-2.82898 -4.985645,0 -8.04685,2.36022 -10.507959,8.10177 l -1.161266,2.70911 3.373843,6.44679 c 5.051402,9.6523 5.917872,15.39053 3.171559,21.0038 -2.07483,4.24079 -5.262177,6.94108 -12.656395,10.72236 -5.941234,3.03824 -6.404011,3.3969 -6.928677,5.36981 -0.918588,3.45418 -1.471863,8.17708 -1.289218,11.00513 0.170104,2.63385 0.193394,2.66155 4.256364,5.06254 4.718295,2.78826 11.591313,9.41613 13.190123,12.71966 0.803516,1.66025 1.100236,3.48967 1.10456,6.81018 0.01073,8.23688 -3.186518,12.4818 -13.107285,17.40229 l -4.600471,2.28174 -0.711213,3.97971 c -0.457302,2.5589 -0.569716,5.67837 -0.314876,8.73769 l 0.396338,4.75799 3.222787,1.71773 c 4.54152,2.42061 9.392039,6.36346 11.702632,9.51275 5.451085,7.4297 5.026107,17.74383 -0.989803,24.02238 -2.13081,2.22384 -6.69584,4.92262 -11.311136,6.68698 -2.015484,0.7705 -3.295053,4.98035 -3.286571,10.81302 0.01109,7.62648 0.265613,8.30242 3.898885,10.35438 5.454052,3.08026 10.156839,6.67237 11.983108,9.15299 2.37075,3.22019 3.633965,7.73321 3.161486,11.29492 -0.938199,7.07247 -5.069659,12.35606 -12.523301,16.01561 -2.497067,1.226 -4.620113,2.28496 -4.717881,2.35324 -0.786075,0.54899 -1.869626,7.07628 -1.830076,11.02434 0.07405,7.39179 0.470122,8.55716 3.449265,10.14877 5.325326,2.84506 9.769759,6.01091 11.636243,8.2887 5.92567,7.2315 5.811679,15.01982 -0.344215,23.51778 -1.644285,2.26987 -9.631826,7.98584 -11.159707,7.98601 -2.098597,2.3e-4 -3.911684,7.86103 -3.275127,14.19959 0.222613,2.21668 0.696492,4.28107 1.053064,4.58752 0.356572,0.30645 2.600125,1.70298 4.985674,3.10339 5.754687,3.37824 8.973843,6.2949 10.944971,9.91651 3.632046,6.67326 2.536191,15.98555 -2.564828,21.7953 -1.698953,1.935 -6.708816,5.98698 -8.177383,6.61388 -0.312133,0.13324 -1.499703,0.823 -2.639045,1.53279 -1.849039,1.15193 -2.136955,1.66196 -2.680685,4.74878 -0.680043,3.86066 -0.434492,11.35872 0.447996,13.67984 0.434036,1.1416 1.946848,2.20248 6.144845,4.30913 6.845608,3.43529 10.969911,7.03375 13.350279,11.64813 1.591228,3.08462 1.787338,3.9926 1.790125,8.28801 0.004,5.74132 -0.59828,7.73207 -4.376212,14.47163 -2.588641,4.61796 -2.887818,5.52216 -3.120578,9.43137 -0.303763,5.10159 0.41983,7.72824 2.910427,10.56488 3.769714,4.29346 9.045554,4.71131 18.439434,1.46042 7.89934,-2.73368 13.57576,-2.95458 17.9722,-0.69939 4.8711,2.49866 6.8409,6.24936 11.00525,20.95509 0.88471,3.12421 7.70727,4.8797 12.91304,3.32261 1.86413,-0.55758 4.26894,-3.57988 4.91075,-6.17169 0.58054,-2.34442 3.65163,-6.5362 7.18624,-9.80863 3.78145,-3.50095 6.25619,-4.37489 12.33294,-4.35529 7.54162,0.0244 12.26951,3.83729 17.05566,13.75507 1.54256,3.19646 3.16371,6.09668 3.60257,6.44494 2.63739,2.09291 8.71831,2.30639 12.60958,0.44267 z M 409.69699,510.7337 c -0.29653,-0.26085 -3.91548,-2.71204 -8.04211,-5.44711 -9.54459,-6.326 -11.11405,-7.73377 -18.33609,-16.44704 -8.7607,-10.56964 -15.8209,-22.34932 -21.03352,-35.09365 -0.66999,-1.63807 -1.54377,-3.74446 -1.94172,-4.68086 -0.39796,-0.9364 -0.89848,-2.53253 -1.11227,-3.54697 -0.21379,-1.01443 -0.464,-1.84442 -0.55602,-1.84442 -0.092,0 -1.21291,0.36891 -2.49086,0.81979 -3.74498,1.32131 -25.68942,5.48373 -34.42389,6.52953 -16.85762,2.0184 -48.7189,2.20534 -60.44036,0.35462 -19.31613,-3.04986 -34.38591,-7.58641 -48.24986,-14.52497 -3.59561,-1.79951 -8.06007,-4.42294 -9.92101,-5.82985 l -3.38352,-2.558 -2.56432,1.29107 c -4.67693,2.35472 -14.9559,5.82699 -21.85984,7.38432 -15.23083,3.43563 -36.38152,1.83694 -45.4933,-3.43865 -3.95346,-2.289 -5.84458,-4.20812 -7.72408,-7.83846 -1.64568,-3.17871 -1.79772,-3.92554 -1.80428,-8.86261 -0.007,-4.91668 0.15196,-5.7162 1.79987,-9.08025 2.43642,-4.97368 5.50567,-7.99332 13.84272,-13.61897 9.21212,-6.21614 13.41935,-10.54629 16.45653,-16.93733 1.28424,-2.70237 2.56184,-5.35684 2.83912,-5.89884 0.27728,-0.542 0.53319,-5.13888 0.5687,-10.21528 0.0355,-5.0764 0.22703,-13.82669 0.42563,-19.44509 0.41573,-11.76092 1.23949,-9.76676 -6.86949,-16.62974 -7.02507,-5.94562 -11.05872,-10.46632 -16.14477,-18.09419 -5.2501,-7.8739 -9.78625,-17.59655 -11.73333,-25.14892 l -1.38997,-5.3914 -0.32165,67.81807 c -0.17691,37.29993 -0.33845,69.47804 -0.35897,71.50691 -0.0338,3.33728 0.16564,16.5167 0.75557,49.94133 0.19193,10.87428 0.30605,11.93056 1.74748,16.17418 4.70494,13.85146 15.11154,22.96623 31.33697,27.44694 1.70776,0.4716 34.90044,0.66021 123.43455,0.70139 66.60426,0.031 123.26939,0.24682 125.92252,0.47965 7.23386,0.63481 7.65378,0.64222 7.06557,0.1248 z m 60.5998,-1.81953 c 14.95385,-1.70323 35.04738,-13.86907 44.48387,-26.93325 4.52829,-6.26912 2.6524,-5.48698 2.66987,-19.35924 -0.004,-6.51748 0.005,-7.7026 -0.0501,-19.29982 -6.14591,1.68477 -6.54622,1.81262 -22.83157,7.14505 -23.52659,7.60974 -40.69561,13.73285 -61.00788,20.15087 -18.90674,5.99334 -20.79991,6.35989 -23.40897,4.53243 -1.72839,-1.21061 -2.84237,-5.02092 -1.82598,-6.24561 1.23825,-1.49199 4.59606,-2.95057 10.83558,-4.70682 37.27427,-11.54795 57.95582,-18.09267 97.92203,-30.21112 0.77098,-1.34907 0.17394,-0.69758 0.25815,-20.95883 0.53779,-21.02076 1.15759,-25.3631 1.17378,-42.09101 -0.64605,-1.04028 -2.14839,-2.80783 -3.33855,-3.92788 -3.80603,-3.58189 -18.57754,-14.13772 -19.78387,-14.13772 -0.20091,0 -1.12564,-0.54142 -2.05496,-1.20315 -1.85297,-1.31943 -13.91283,-6.74206 -14.99426,-6.74206 -0.3708,0 -0.85289,0.95265 -1.07133,2.117 -1.13067,6.02703 -7.01789,21.02074 -11.34463,28.89281 -3.20495,5.83106 -8.63802,13.71063 -12.53313,18.17675 -2.03081,2.32851 -4.34907,5.22598 -5.15168,6.43883 -0.80263,1.21284 -3.52259,3.92381 -4.27163,4.4146 29.18757,-9.1979 37.28059,-12.07237 51.36547,-17.14883 9.03486,-3.27994 12.28474,-2.58251 12.28474,2.63633 0,3.43021 -2.17687,4.99133 -12.05064,8.64202 -41.62379,14.24675 -82.20511,27.24989 -120.60603,38.91317 -2.26297,0.64509 -4.11449,1.40162 -4.11449,1.68117 0,0.27954 0.38017,2.12025 0.8448,4.09045 3.57804,15.17193 12.48132,30.36937 25.2174,43.04483 9.47034,9.42528 23.9995,18.23807 34.66193,21.02451 7.5372,1.96972 26.25643,2.48434 38.72209,1.06452 z m 62.57763,-57.80579 c 0.5197,-2.06024 1.155,-5.40586 1.41178,-7.43473 0.25678,-2.02887 1.04418,-6.24267 1.74979,-9.364 1.69027,-7.47716 1.8237,-19.93669 0.30692,-28.65952 -1.65902,-9.54078 -5.28949,-19.89343 -8.20942,-23.41 -1.22888,-1.47998 -1.55278,-1.22318 -1.43167,1.13503 0.0601,1.1705 0.14761,13.385 0.19444,27.14333 -0.0679,11.47327 -0.4011,24.7038 -0.39331,34.51753 -0.0755,7.0145 -0.18131,9.65125 -0.0587,15.04709 l 0.11791,5.9993 2.68366,-5.61408 c 1.47601,-3.08774 3.10887,-7.29972 3.62856,-9.35995 z m -227.00433,-8.83175 c 2.18493,-0.15091 5.76028,-0.53257 7.94521,-0.84813 2.18493,-0.31557 5.76028,-0.69523 7.94521,-0.84369 4.25368,-0.28903 15.49145,-1.8806 16.14931,-2.28717 0.21838,-0.13497 1.77731,-0.40321 3.4643,-0.59609 1.68699,-0.19289 3.35058,-0.58584 3.69686,-0.87322 0.34628,-0.28739 0.74353,-0.4086 0.88278,-0.26936 0.13924,0.13925 2.1588,-0.24166 4.4879,-0.84647 2.3291,-0.6048 4.76053,-1.10402 5.40317,-1.10937 0.64265,-0.005 1.60977,-0.33242 2.14916,-0.72684 0.87503,-0.63984 0.90625,-1.03968 0.28973,-3.71061 -0.54921,-2.37932 -0.53804,-4.58733 0.0545,-10.76171 0.41,-4.27251 0.95509,-8.15729 1.2113,-8.63284 0.25622,-0.47555 1.40305,-4.69536 2.54852,-9.37736 2.96586,-12.12275 7.03223,-21.72991 12.57491,-29.70937 9.87691,-14.2192 22.60685,-25.16078 38.917,-33.58762 13.24722,-6.84434 28.1772,-9.04242 37.46274,-8.77527 l 19.65116,0.56536 c 1.3656,-11.76584 2.47612,-25.28565 1.77144,-37.68168 -0.29577,-4.63307 -2.41565,-15.73732 -3.95711,-20.72801 -1.70894,-5.53288 -1.58301,-6.9174 0.8367,-9.19949 1.36374,-1.28616 2.57803,-1.91143 3.71207,-1.91143 4.26518,0 17.38882,-5.72855 23.67861,-10.33585 6.52566,-4.78007 12.48076,-11.78515 15.33593,-18.03991 4.33207,-9.49014 6.8915,-23.49362 5.62897,-30.79783 -0.47222,-2.73194 -0.90431,-3.55238 -2.61239,-4.96033 -1.12563,-0.92784 -3.7152,-2.26403 -5.75461,-2.96932 -3.16487,-1.0945 -4.87182,-1.28196 -11.65323,-1.27978 -13.7715,0.005 -25.62642,3.48186 -36.48926,10.70347 -4.5637,3.03394 -9.57152,9.00374 -13.2794,15.83032 -4.7117,8.67471 -7.09728,10.85721 -9.49534,8.687 -1.9202,-1.73776 -2.59988,-5.12485 -1.80963,-9.0181 1.10852,-5.46133 2.24187,-8.35544 4.10142,-10.47336 0.96792,-1.10239 1.57389,-2.31517 1.39271,-2.78732 -0.17641,-0.45971 -0.32074,-1.39918 -0.32074,-2.08771 0,-0.68854 -1.37603,-3.65561 -3.05783,-6.5935 -7.15291,-12.49514 -23.22868,-24.20413 -30.40513,-22.14595 -0.90065,0.2583 -1.76073,0.34646 -1.91128,0.1959 -0.51479,-0.51479 -3.64732,1.46962 -5.16262,3.27044 -2.7597,3.27972 -4.65681,7.81349 -6.2698,14.98376 -1.1826,5.25702 -0.79493,16.01571 0.77312,21.45547 4.22642,14.66201 14.4343,27.15682 24.27232,29.71018 5.8484,1.5179 6.88088,3.84436 3.0665,6.90967 -1.23023,0.98864 -2.46755,1.79753 -2.7496,1.79753 -0.28204,0 -2.0933,1.02153 -4.02503,2.27006 -1.93172,1.24853 -3.59846,2.27006 -3.70386,2.27006 -0.42584,0 -12.44651,7.47739 -19.63309,12.21266 -6.82521,4.49716 -19.53373,11.05546 -21.42301,11.05546 -0.94701,0 -0.89622,0.89088 0.14103,2.47394 1.08411,1.65456 3.32029,8.19943 5.1657,15.11903 1.52122,5.70397 2.37413,15.32282 1.68461,18.9983 -0.76265,4.06525 -4.42531,6.06363 -7.04571,3.84419 -0.99173,-0.83999 -1.30737,-2.24809 -2.04664,-9.13034 -0.48074,-4.47545 -1.02699,-8.38462 -1.2139,-8.68703 -0.1869,-0.30241 -0.41979,-1.10986 -0.51752,-1.79433 -0.26159,-1.83191 -2.78073,-9.87298 -4.16544,-13.29603 -4.5369,-11.21546 -12.54213,-24.13444 -19.83786,-32.0147 -6.316,-6.82202 -15.79853,-13.6527 -21.57678,-15.54266 -2.62752,-0.85943 -3.11201,-0.86242 -5.9521,-0.0368 -5.21909,1.51723 -8.45952,6.1398 -11.31548,16.14186 -1.04493,3.65954 -1.24387,5.82304 -1.26063,13.70928 -0.011,5.1502 0.14711,10.25784 0.35124,11.3503 3.22,17.23248 5.26231,24.11056 10.71006,36.06938 1.90585,4.18367 2.39787,7.16973 1.75469,10.64906 -0.94921,5.13472 -4.24161,8.83015 -7.20458,8.08649 -1.94446,-0.48803 -2.55263,-2.46835 -2.42965,-7.91143 0.099,-4.38037 -0.056,-5.01824 -3.06485,-12.61702 -4.9015,-12.3785 -8.88272,-26.4415 -10.06737,-35.56129 -1.52064,-11.70635 0.29244,-26.79429 4.26512,-35.49318 1.69913,-3.72056 7.29217,-9.6408 11.02982,-11.67508 5.5557,-3.02379 11.19059,-3.91959 16.20118,-2.57556 1.24854,0.3349 4.68413,1.92962 7.63466,3.54381 4.30687,2.35622 6.75097,4.27312 12.39614,9.72221 6.91184,6.67178 14.26975,15.65307 16.65644,20.33136 1.19685,2.34603 1.2188,2.35824 1.73537,0.96531 2.94141,-7.93151 3.44961,-31.24432 0.92768,-42.55563 -0.31317,-1.4046 -0.65811,-3.21091 -0.76652,-4.01403 -0.39597,-2.93293 -4.47975,-14.00254 -7.10319,-19.2541 -10.9499,-21.91922 -25.48482,-37.01451 -48.50603,-50.37611 -8.02537,-4.65796 -22.57853,-9.84841 -34.61843,-12.34681 -7.21918,-1.49805 -18.52914,-2.38852 -28.65951,-2.25644 -8.03047,0.10469 -10.60158,0.37995 -18.05423,1.93285 -9.60777,2.00194 -21.47638,5.78183 -28.98238,9.23024 -10.30041,4.73221 -22.89199,13.01185 -31.96223,21.0169 -4.65156,4.10529 -14.18067,14.83734 -17.28121,19.46277 -7.96557,11.88312 -10.38835,16.45961 -14.02486,26.49208 -7.32308,20.20307 -9.10934,38.11663 -5.76196,57.78392 2.00042,11.75334 4.80137,19.36026 10.90362,29.61246 5.21389,8.75971 9.19169,13.52513 17.47387,20.93378 9.63082,8.61504 9.55917,8.45765 8.97909,19.72474 -0.61889,12.02089 -0.37374,20.44651 0.71797,24.67609 2.97478,11.52514 9.05717,25.06715 15.0825,33.58013 1.98246,2.80096 6.41368,7.92142 9.84715,11.37882 7.97981,8.03544 12.13837,11.01593 24.9456,17.87882 14.30759,7.66687 35.91927,13.22055 57.06034,14.66314 6.48903,0.44279 24.4755,0.33881 32.06461,-0.18536 z M 143.94149,278.80501 c -3.17247,-2.66946 -2.15501,-4.87928 4.44314,-9.65008 6.38849,-4.6192 10.71117,-6.38178 13.26754,-5.40985 1.9003,0.7225 3.4018,3.08899 2.98469,4.70413 -0.27549,1.06678 -4.55768,4.4571 -9.5029,7.52371 -0.50335,0.31213 -1.90864,1.25264 -3.12286,2.09002 -1.21422,0.83738 -3.12172,1.6876 -4.23888,1.88939 -1.68425,0.30422 -2.33858,0.10824 -3.83073,-1.14732 z m 73.12979,-21.2653 c -5.25695,-1.94631 -8.96373,-5.59099 -9.64166,-9.48015 -0.47434,-2.72126 0.30582,-4.5664 2.3855,-5.64184 2.24451,-1.16069 3.64574,-0.58339 7.00816,2.88733 3.10591,3.20595 5.25409,4.02576 8.78234,3.35162 6.62752,-1.26631 11.22066,-7.17746 12.22641,-15.73479 l 0.35468,-3.01777 -3.50341,-0.74347 c -6.00822,-1.27503 -10.20347,-5.58877 -10.23917,-10.52838 -0.0211,-2.9225 2.26033,-6.58781 5.49485,-8.82782 4.38286,-3.03528 8.53001,-4.2034 14.92323,-4.2034 4.80364,0 5.62394,0.15467 7.52452,1.41879 1.17322,0.78033 2.64166,2.4571 3.26321,3.72614 2.32796,4.75312 1.04626,8.91727 -4.22849,13.73809 -1.73478,1.58549 -3.15415,3.16708 -3.15415,3.51464 0,1.37439 2.4366,5.28971 4.59619,7.38552 7.2124,6.99939 19.80696,3.65619 19.80696,-5.25773 0,-1.56968 0.26268,-2.04662 1.27691,-2.31842 2.47529,-0.66336 3.81161,-0.3398 5.79728,1.40364 1.78759,1.56952 2.00605,2.06642 2.00605,4.56273 0,9.27212 -11.81065,17.27978 -22.56393,15.29842 -3.37449,-0.62178 -9.81185,-3.29093 -11.17484,-4.6335 -1.0808,-1.06458 -1.94103,-0.46957 -3.6186,2.50293 -2.18862,3.87801 -6.20269,7.43953 -10.8716,9.64589 -4.8889,2.31034 -11.71404,2.70512 -16.45044,0.95153 z m 21.48708,-40.8642 c 4.76902,-1.43336 7.52784,-3.08835 7.08256,-4.24875 -0.86588,-2.25643 -10.34053,-0.37862 -13.01815,2.58011 -0.79229,0.87548 -0.83897,1.22986 -0.25473,1.93383 0.93033,1.12097 1.68609,1.0886 6.19032,-0.26519 z m -97.35528,39.70486 c -6.71871,-0.71478 -8.48723,-2.37726 -6.80694,-6.39875 0.69948,-1.67408 1.2329,-2.10685 3.02074,-2.45072 2.94226,-0.56592 13.31563,-0.56779 17.44885,-0.003 5.75233,0.78582 8.36035,4.85883 5.16028,8.05891 -1.36598,1.36597 -1.63583,1.4075 -8.37085,1.28838 -3.82766,-0.0677 -8.53109,-0.2903 -10.45208,-0.49467 z m 10.7956,-16.49469 c -2.15391,-0.62433 -5.86008,-4.57307 -5.94693,-6.33615 -0.23629,-4.79701 0.93635,-6.30809 4.59068,-5.91564 1.41135,0.15157 3.2301,0.45012 4.04168,0.66345 1.38208,0.36328 1.5749,0.15423 3.04214,-3.29807 1.96168,-4.61565 5.91733,-8.69864 11.01089,-11.36537 5.89481,-3.08622 9.57583,-3.93788 15.90437,-3.6797 4.69378,0.19149 6.0017,0.47876 9.36763,2.05747 4.61059,2.1625 10.39001,6.17002 12.47992,8.65373 1.98413,2.35801 2.01513,5.49995 0.077,7.8033 -2.71029,3.22099 -5.94702,2.78643 -9.94263,-1.33488 -3.66464,-3.77991 -5.72537,-4.50733 -12.76909,-4.50733 -5.85732,0 -6.43003,0.10379 -9.27794,1.68124 -3.74066,2.07196 -7.19855,5.84282 -9.71745,10.59698 -2.67469,5.04817 -3.4455,5.60912 -7.62278,5.54733 -1.90307,-0.0282 -4.25994,-0.28301 -5.23748,-0.56636 z m 195.30002,-5.71134 c -1.56067,-0.21002 -4.31423,-0.40424 -6.11902,-0.43158 -5.87793,-0.0891 -9.19331,-2.48845 -8.81721,-6.38116 0.28406,-2.94003 1.84181,-3.44513 9.38635,-3.0435 7.15785,0.38104 11.00658,1.3276 12.99552,3.19611 1.70843,1.60499 1.73991,3.92297 0.0739,5.44505 -1.51821,1.38707 -3.66448,1.73389 -7.51957,1.21508 z m -19.55295,-17.39312 c -2.00993,-2.00994 -2.16649,-3.37684 -0.61295,-5.35184 2.20989,-2.80942 14.84186,-9.3804 19.78846,-10.29369 1.58683,-0.29298 2.15993,-0.0821 3.54697,1.30491 3.06841,3.0684 1.80296,6.26422 -3.5382,8.93547 -7.57533,3.78863 -13.88851,6.54828 -15.63731,6.83547 -1.48855,0.24444 -2.13147,-0.0148 -3.54697,-1.43032 z m -50.36652,-4.13491 c -0.6308,-0.23335 -1.71806,-1.14786 -2.41612,-2.03223 -1.85462,-2.34963 -1.3962,-6.13775 1.42412,-11.76808 3.68552,-7.35757 9.7825,-11.94826 18.98383,-14.29379 8.32643,-2.12252 18.82752,0.31048 24.89839,5.76872 l 2.77453,2.49453 2.19584,-1.74534 c 1.79852,-1.42954 2.54911,-1.68805 4.14822,-1.42871 2.98557,0.4842 4.29029,2.13697 4.29029,5.43475 0,1.93349 -0.36196,3.26816 -1.18851,4.38247 -1.95329,2.63332 -5.52665,4.82035 -8.40621,5.14492 -2.44691,0.2758 -2.85408,0.12068 -5.8811,-2.24057 -5.00837,-3.90682 -8.01857,-5.42734 -12.16164,-6.1431 -4.00926,-0.69264 -7.53275,-0.26706 -11.49481,1.38839 -3.13567,1.31017 -7.07385,5.37551 -9.09853,9.3923 -1.02799,2.03946 -2.34417,4.12168 -2.92483,4.62716 -1.29598,1.12815 -3.609,1.58621 -5.14347,1.01858 z M 175.19675,188.2736 c -4.66874,-0.6624 -7.02164,-4.65571 -5.1559,-8.75056 1.02603,-2.25191 5.56927,-4.8813 8.53714,-4.94088 7.33655,-0.14726 10.42876,6.80368 5.15136,11.57967 -1.63192,1.47687 -5.77694,2.50273 -8.5326,2.11177 z m 103.3101,-21.94533 c -3.60691,-0.69814 -5.34855,-6.41745 -2.90155,-9.5283 2.50026,-3.17856 8.3763,-4.6239 11.73575,-2.88666 2.08512,1.07826 3.76737,4.25239 3.28092,6.19057 -1.13696,4.53003 -6.53652,7.30417 -12.11512,6.22439 z m 94.40474,262.11507 c 4.24843,-1.1154 17.79689,-6.06658 24.04468,-8.78695 1.09247,-0.47567 3.36221,-1.40568 5.04387,-2.06667 5.682,-2.23337 19.6172,-9.39609 24.46932,-12.57726 13.48851,-8.84343 24.96151,-22.67546 33.32735,-40.17998 3.77422,-7.8971 8.66637,-20.60072 8.66637,-22.50425 0,-2.17277 -19.42904,-2.86906 -30.36206,-1.08809 -6.37912,1.03915 -19.05281,5.57072 -22.97246,8.21397 -0.78688,0.53064 -3.98451,2.65801 -7.10584,4.72748 -14.14355,9.37731 -26.37719,23.4197 -32.15198,36.90566 -0.9571,2.23512 -1.97127,4.57462 -2.25373,5.19888 -0.84754,1.87319 -1.55623,4.62403 -3.8745,15.03916 -2.30917,10.37429 -2.5232,11.78895 -2.38271,15.74854 0.0994,2.80161 0.0981,2.8013 5.55169,1.36951 z m -202.57128,-0.40482 c 7.50423,-0.9806 19.47293,-4.89784 19.47293,-6.37329 0,-0.22753 -1.08537,-1.28938 -2.41194,-2.35965 -7.72991,-6.2365 -17.73263,-20.72904 -23.42219,-33.93549 -1.24183,-2.8825 -2.42173,-5.24478 -2.62198,-5.24952 -0.20027,-0.005 -0.51869,0.60723 -0.70761,1.35994 -0.63977,2.54906 -6.04082,9.8981 -9.87213,13.43272 -2.09635,1.93401 -6.69778,5.43071 -10.2254,7.77045 -3.52763,2.33974 -7.00996,5.04973 -7.73852,6.0222 -3.97393,5.30436 -4.75921,9.81519 -2.23164,12.81904 2.00727,2.38551 7.75562,5.20105 12.29659,6.02288 0.68742,0.1244 2.39907,0.43747 3.80367,0.6957 4.26524,0.78414 16.92834,0.67443 23.65822,-0.20498 z m 347.59821,-75.60174 c 0.1267,-0.8632 0.0611,-3.35318 -0.14565,-5.53327 -0.2068,-2.18009 -0.34532,-26.25234 -0.30781,-53.49387 l 0.0682,-49.53007 -4.1192,4.5064 c -7.13726,7.80814 -16.55701,14.48476 -25.67534,18.1984 -3.2774,1.3348 -6.62621,2.76867 -7.44179,3.18638 l -1.48287,0.75947 1.57345,6.12644 c 2.34384,9.126 3.03716,17.66068 2.59536,31.94838 -0.20751,6.71087 -0.6135,13.60618 -0.90219,15.32291 -1.3447,7.9962 -1.3829,9.59727 -0.23851,9.99749 0.58997,0.20633 4.9034,2.15845 9.5854,4.33806 9.76843,4.54751 14.83515,7.49809 21.10475,12.2903 2.43839,1.86379 4.59598,3.40305 4.79465,3.42058 0.19868,0.0175 0.46488,-0.67439 0.59157,-1.5376 z M 119.81721,274.41225 c -0.15743,-0.39016 -0.28625,-0.0709 -0.28625,0.7094 0,0.78033 0.12882,1.09956 0.28625,0.70939 0.15744,-0.39017 0.15744,-1.02862 0,-1.41879 z m 265.505,-12.34193 c 4.99413,-2.8715 11.8227,-6.7919 15.17459,-8.71201 3.35188,-1.9201 6.09724,-3.62242 6.10078,-3.78294 0.003,-0.16052 -2.11412,-2.45896 -4.70593,-5.10764 -6.06302,-6.19607 -8.75493,-9.84701 -11.95298,-16.21144 -9.66137,-19.22707 -7.63269,-43.6259 4.75107,-57.14058 4.7836,-5.22046 9.30554,-7.4597 14.8563,-7.35678 6.8939,0.12784 14.7558,3.38707 22.41868,9.29391 6.40161,4.9346 16.29319,16.57766 18.12959,21.33977 0.51155,1.32657 1.16232,2.41194 1.44615,2.41194 0.28382,0 2.39646,-1.26889 4.69475,-2.81976 7.90855,-5.33663 16.0603,-8.75438 26.01161,-10.90576 4.76758,-1.03071 7.658,-1.25718 16.29467,-1.27675 10.83765,-0.0246 10.99833,5.7e-4 17.63558,2.7583 0.79157,0.3289 0.90458,-0.7631 0.98726,-9.53958 0.0857,-9.09776 -0.0254,-10.32073 -1.35373,-14.90464 -2.12771,-7.34227 -4.37186,-11.18013 -9.58693,-16.3952 -5.35255,-5.35255 -9.27048,-7.59208 -16.81334,-9.61068 l -5.32676,-1.42554 -92.89162,-0.0666 c -51.09039,-0.0367 -93.19611,0.12156 -93.56827,0.35156 -0.40442,0.24996 0.94622,1.04961 3.35732,1.9877 13.27888,5.16644 28.08079,15.40343 40.94488,28.31742 8.86778,8.90219 15.29872,17.34411 20.85306,27.3739 10.76905,19.44627 15.68196,47.38988 12.1077,68.86609 -0.62338,3.7456 -1.31217,7.41019 -1.53066,8.14352 -0.3894,1.30703 -0.36484,1.31657 1.24437,0.48304 0.90289,-0.46766 5.72773,-3.19971 10.72186,-6.07122 z M 123.4316,216.95134 c 5.71182,-18.20549 17.0008,-37.32383 30.17766,-51.10707 11.1098,-11.62105 26.70963,-22.72307 40.46034,-28.79462 10.39363,-4.58926 11.81982,-4.05302 -11.63406,-4.37431 -30.99773,-0.42463 -34.78571,0.0224 -44.12417,5.20702 -4.84966,2.69248 -11.32938,9.54112 -13.88495,14.67547 -4.20926,8.45674 -4.08456,7.32941 -4.26653,38.57157 -0.09,15.4506 -0.28393,31.41197 -0.43097,35.4697 l -0.26735,7.3777 1.36182,-6.52643 c 0.74902,-3.58953 1.9227,-8.31409 2.60821,-10.49903 z"
       id="path263"
       sodipodi:nodetypes="ssssssscsssssssssssssssssssssssssssssssssssssssssssssssssssssssscssssssssssssssssssssssssssssssssssssssssssssssssssssssssssssssssssssssssscsssssscssssssssssssssscsssssssssssssssssssssssssssscssssscsssssscssssssssssssssssssssssssssssssssscssssssssssssssssssssssssssssscssssssssssssssssssssssssssssssssssssssssssssssscsssssssssscssssssssscsscsssssssssssssssssssssssssscssssssssssssssssssssssssscsssssssssssssscssssssssssccccssccccssssssssccsccsssssssssssccccsssssssssscssssssssccsssssssscsssssssssssssssssssssssssssssssssssssssssssssssssssssssssssssssssssssssssssssssssscssssssssssssssssssssssscsscssccssssssssssssssssssssssssssssssssssscssssssssssssssssssssssssssssssssssssssscssssssssssscssscsssssssssssssscssssssssssssssscssssssssssssssssscss" /><path
       style="fill:#f3ebda;stroke:#f3ebda;stroke-width:3.21887"
       d="m 266.71544,441.48868 c -31.75209,-3.56989 -58.10053,-14.93558 -75.12122,-32.40439 -8.38332,-8.60402 -13.8357,-16.8076 -18.76306,-28.23062 -5.65146,-13.10171 -6.72877,-18.64772 -6.56788,-33.81154 0.077,-7.26039 0.0988,-14.28902 0.0483,-15.61922 -0.0721,-1.90101 -2.15792,-4.4523 -9.7478,-11.92321 -14.2027,-13.98007 -21.64932,-26.10862 -25.82692,-42.06513 -2.94738,-11.25764 -3.70641,-31.67101 -1.62351,-43.66292 1.74034,-10.01971 7.25866,-26.76031 11.16531,-33.8716 15.56683,-28.33623 39.65426,-48.78914 69.0392,-58.62196 18.48573,-6.1857 31.03141,-7.82206 48.881,-6.37565 30.86704,2.50127 56.48944,14.09379 77.20052,34.92838 7.1514,7.19405 11.96897,13.57388 17.56653,23.26309 8.98673,15.55576 12.51321,29.14112 12.53064,48.27289 0.0106,11.57297 -1.19461,23.06638 -2.4183,23.063 -0.30322,-5.7e-4 -1.58849,-1.62963 -2.85614,-3.61955 -3.22019,-5.05492 -13.81952,-16.85857 -19.41245,-21.61813 -2.57626,-2.19239 -7.48153,-5.31851 -10.9006,-6.94694 -5.54252,-2.6398 -6.75931,-2.91157 -11.22359,-2.50676 -8.98846,0.81505 -17.63335,7.17771 -21.36491,15.72465 -4.42842,10.14302 -5.48064,28.43415 -2.44242,42.45727 0.96873,4.47121 4.03469,14.77038 6.81327,22.88705 3.79881,11.09698 5.05194,15.93506 5.05194,19.50459 0,3.92671 0.30421,4.90982 1.76043,5.68916 3.7076,1.98425 8.45946,-3.98064 8.45946,-10.61895 0,-1.63801 -1.88806,-7.68644 -4.19569,-13.44097 -6.0664,-15.12771 -8.58371,-27.37461 -8.56121,-41.65084 0.0154,-9.76151 0.30543,-12.20924 2.02347,-17.07657 2.69881,-7.64587 4.90796,-10.51144 9.43701,-12.24111 3.54128,-1.35242 4.02507,-1.35491 7.31736,-0.0376 21.05774,8.42564 42.36473,40.49868 45.91887,69.12087 1.2362,9.95536 1.88355,11.43642 4.99873,11.43642 1.35792,0 2.94623,-0.57508 3.52955,-1.27795 3.48218,-4.19577 0.71446,-23.48083 -5.44125,-37.9138 -0.4164,-0.97631 1.27478,-2.1987 6.90505,-4.99104 4.1011,-2.03393 12.82685,-7.05649 19.39058,-11.16123 6.56374,-4.10475 14.68927,-9.09093 18.05674,-11.0804 7.75109,-4.57925 10.29014,-7.12929 8.83924,-8.8775 -0.57405,-0.6917 -2.83396,-1.92254 -5.02202,-2.73519 -15.4782,-5.74868 -27.20313,-26.91369 -25.41599,-45.87913 0.7258,-7.7022 3.55247,-15.83045 6.81951,-19.60986 2.72611,-3.15364 3.12512,-3.32251 7.92248,-3.3529 4.279,-0.0271 5.82201,0.42398 10.08689,2.94881 9.27618,5.49152 18.4086,15.99302 21.35094,24.55169 0.94884,2.75998 0.87695,3.36488 -0.65568,5.51725 -4.11531,5.77944 -5.37006,16.32631 -2.30675,19.38963 1.58108,1.58108 1.95963,1.63908 3.61955,0.55461 1.0196,-0.66612 3.95089,-4.62249 6.514,-8.79192 6.40222,-10.41455 11.71283,-15.53751 20.5218,-19.79665 9.70029,-4.6901 16.99111,-6.30816 28.89827,-6.41343 8.91427,-0.0788 10.17659,0.10865 14.05236,2.08674 5.44449,2.77872 6.57317,5.54638 5.86544,14.38271 -0.66527,8.30599 -3.16458,17.68263 -6.44745,24.18878 -5.51448,10.92888 -19.47886,21.6383 -33.4843,25.67945 -11.33613,3.27093 -11.49932,3.5833 -8.36427,16.01029 2.2828,9.04876 2.40256,10.47987 2.40084,28.6862 -10e-4,10.53926 -0.29833,20.55965 -0.66074,22.26753 l -0.6589,3.10523 -16.79825,0.38917 c -19.16014,0.44388 -24.9342,1.59072 -37.38516,7.42545 -25.24035,11.82803 -43.99855,32.10616 -51.62758,55.81085 -5.04259,15.66816 -5.96305,20.21155 -6.2115,30.65968 l -0.24301,10.21989 -5.80337,1.47969 c -23.38843,5.96336 -63.30579,9.01141 -85.43336,6.5236 z M 153.36877,277.41911 c 2.98146,-1.75655 6.98226,-4.57416 8.89068,-6.26136 3.46033,-3.05924 3.46578,-3.07382 1.99216,-5.32286 -2.67393,-4.08092 -9.03935,-2.51344 -17.40798,4.2867 -5.28179,4.29185 -5.85952,5.77273 -3.26446,8.36778 1.16789,1.1679 2.62864,2.12345 3.24611,2.12345 0.61746,0 3.56203,-1.43717 6.54349,-3.19371 z m 80.13202,-20.79674 c 4.20661,-1.80378 9.68068,-6.65216 11.56655,-10.2445 l 1.20627,-2.29779 5.74971,2.71169 c 7.76814,3.66364 14.03196,3.70037 20.62082,0.12093 6.90993,-3.75387 10.85742,-10.91004 8.87211,-16.08371 -0.72556,-1.89077 -5.17356,-4.0676 -7.07704,-3.46346 -0.89003,0.28249 -1.79095,1.65303 -2.09896,3.19308 -0.29681,1.48399 -1.10739,3.56466 -1.80129,4.6237 -1.60631,2.45151 -7.00315,4.0912 -10.99867,3.34163 -3.68486,-0.69127 -8.38115,-4.59348 -9.87834,-8.20802 -1.0364,-2.50209 -0.93459,-2.76202 2.42104,-6.18116 4.48934,-4.5743 5.75405,-8.01563 4.42535,-12.04163 -1.66929,-5.05801 -4.29007,-6.42619 -12.30947,-6.42619 -5.80061,0 -7.70214,0.37131 -11.43971,2.23382 -5.85024,2.9153 -9.06378,7.5171 -8.34452,11.94937 0.66411,4.09245 4.27158,7.74109 9.06008,9.16347 3.76778,1.11921 3.85364,1.22284 3.65054,4.40682 -0.2943,4.61422 -3.54593,10.66029 -6.94414,12.91194 -4.58346,3.03702 -8.57491,2.58969 -13.28766,-1.48916 -4.37555,-3.78702 -5.16757,-3.99559 -7.90125,-2.08086 -2.6864,1.88164 -2.53274,6.29962 0.33778,9.71102 5.5109,6.54933 14.83884,8.15052 24.1708,4.14901 z m -73.06327,-1.56923 c 1.98057,-2.4459 1.92542,-3.0727 -0.48224,-5.48036 -1.60622,-1.60622 -3.31288,-2.12869 -8.55925,-2.62032 -7.0833,-0.66376 -14.7124,0.0115 -16.45334,1.45641 -1.50088,1.24561 -1.36285,5.36412 0.22391,6.68102 1.43881,1.1941 13.93923,2.51238 19.94806,2.1037 2.68243,-0.18245 4.24674,-0.81149 5.32286,-2.14045 z m 2.04294,-16.38446 c 0.91713,-1.05393 3.08212,-4.02408 4.81109,-6.60035 3.82209,-5.69511 7.53243,-8.3277 12.74367,-9.04198 6.51099,-0.89243 11.16426,0.25053 15.72339,3.86203 5.47667,4.33833 7.14199,4.77072 9.92948,2.57809 1.68866,-1.32831 2.26296,-2.54572 2.26296,-4.79709 0,-3.798 -3.66256,-7.36345 -12.14032,-11.81838 -5.81778,-3.05715 -6.09611,-3.11305 -13.71921,-2.75493 -5.97963,0.2809 -8.66818,0.82479 -11.61341,2.34937 -6.25849,3.23966 -9.39082,6.06219 -12.14669,10.94533 l -2.60369,4.61349 -3.65719,-0.50128 c -6.78836,-0.93045 -8.71893,4.86223 -3.39486,10.1863 2.58148,2.58148 3.39694,2.89563 7.51646,2.89563 3.73012,0 4.94225,-0.36937 6.28832,-1.91623 z m 192.10158,-5.45486 c 0.85661,-0.77521 1.55746,-2.32974 1.55746,-3.45452 0,-2.73123 -5.20008,-4.97503 -13.26186,-5.72243 -7.70287,-0.71411 -10.58455,0.27148 -10.58455,3.6201 0,4.71254 4.30985,6.49651 16.54026,6.84642 2.84002,0.0812 4.69335,-0.33449 5.74869,-1.28957 z m -13.20813,-18.95879 c 5.3662,-2.58068 9.20594,-5.00317 10.10492,-6.3752 1.35728,-2.07147 1.35886,-2.35188 0.0249,-4.3878 -0.78378,-1.19621 -2.00279,-2.39661 -2.70888,-2.66757 -3.04682,-1.16918 -19.54415,7.23957 -22.18729,11.30894 -1.0139,1.56098 -0.93659,2.06338 0.62243,4.04537 0.97907,1.24467 2.6146,2.25753 3.63453,2.2508 1.01992,-0.007 5.74916,-1.88528 10.5094,-4.17454 z m -60.13494,-1.79909 c 0.90017,-0.48176 2.93077,-2.87705 4.51245,-5.32286 3.53416,-5.46505 6.02194,-7.80497 10.11756,-9.51624 6.4163,-2.6809 13.61465,-1.2729 20.92416,4.09278 2.36809,1.73833 5.2303,3.10567 6.50103,3.10567 5.1241,0 10.70223,-5.01873 10.70223,-9.62895 0,-5.01659 -4.52433,-7.23993 -8.89935,-4.3733 -1.92249,1.25966 -2.22136,1.1786 -5.84074,-1.58413 -10.4536,-7.97941 -27.14474,-7.13811 -37.42292,1.88626 -3.532,3.10113 -8.30469,11.96563 -8.30469,15.42461 0,2.65206 2.92695,6.79208 4.80192,6.79208 0.69942,0 2.00816,-0.39416 2.90835,-0.87592 z m -99.79052,-24.76615 c 2.73927,-0.95491 5.23427,-4.47665 5.18408,-7.31738 -0.0531,-3.00165 -3.99171,-6.21681 -7.61578,-6.21681 -3.1085,0 -8.23905,3.18225 -9.3138,5.77694 -2.53615,6.12282 4.01761,10.4512 11.7455,7.75725 z m 106.65145,-23.5891 c 3.4426,-3.07596 3.58826,-6.5232 0.39178,-9.2727 -2.62375,-2.25685 -5.28512,-2.47191 -9.38601,-0.75845 -4.6034,1.92343 -6.1253,6.63674 -3.39953,10.52832 1.06501,1.52054 2.15119,1.89283 5.52234,1.89283 3.39525,0 4.70731,-0.45636 6.87142,-2.39 z"
       id="path704" /><path
       style="fill:#f3ebda;stroke:#f3ebda;stroke-width:3.21887"
       d="m 232.99704,216.61242 c -0.76877,-1.2439 1.6648,-3.04927 5.57435,-4.13536 6.59433,-1.83194 9.04426,0.008 3.29577,2.47553 -5.29462,2.27247 -8.1601,2.80868 -8.87012,1.65983 z"
       id="path775" /><path
       style="fill:#f3ebda;stroke:#f3ebda;stroke-width:3.21887"
       d="m 148.12333,427.86423 c -10.74582,-1.1162 -18.52479,-5.44849 -18.52479,-10.31688 0,-4.98776 2.93119,-8.64841 12.64137,-15.78729 8.8303,-6.49201 14.777,-12.65211 17.73408,-18.37047 l 1.31685,-2.54651 5.30994,10.26699 c 6.15514,11.90123 9.80859,17.18256 17.3402,25.06648 l 5.43183,5.6859 -2.61299,1.35123 c -7.19721,3.72182 -25.9023,5.97329 -38.63649,4.65055 z"
       id="path777" /><path
       style="fill:#f3ebda;stroke:#f3ebda;stroke-width:3.21887"
       d="m 368.06271,424.4668 c 0,-2.38395 1.14853,-9.3782 2.55228,-15.54275 5.26408,-23.11702 16.75,-39.7888 37.5011,-54.43275 11.19554,-7.90062 22.58798,-12.15671 35.95304,-13.43167 8.80699,-0.84013 20.82325,-0.34043 22.91604,0.95299 2.70447,1.67145 -9.89581,29.51931 -18.6754,41.27453 -6.03791,8.08429 -15.03941,16.88531 -21.48267,21.00419 -10.84401,6.93208 -35.96045,18.21636 -50.55043,22.71124 -8.22016,2.53246 -8.21396,2.53438 -8.21396,-2.53578 z"
       id="path779" /><path
       style="fill:#f3ebda;stroke:#f3ebda;stroke-width:3.21887"
       d="m 200.28613,558.06555 c -1.17399,-0.61168 -3.46636,-3.61056 -5.10994,-6.68482 -1.63945,-3.06651 -3.84579,-6.76586 -4.90298,-8.22078 -3.90054,-5.36796 -13.52094,-7.78929 -20.03537,-5.04267 -3.63839,1.53405 -10.49779,8.99686 -12.44523,13.54007 -2.09298,4.88272 -3.57526,5.92942 -8.50221,6.00374 -6.32317,0.0954 -7.99589,-1.45562 -10.60913,-9.83717 -1.22414,-3.92626 -3.10551,-8.45551 -4.1808,-10.06496 -3.95962,-5.92661 -11.72732,-7.42034 -22.05829,-4.24182 -8.46302,2.60382 -11.90733,2.92687 -15.44519,1.44866 -7.465503,-3.11929 -8.616015,-11.47102 -3.149596,-22.86334 5.66795,-11.81231 5.438118,-19.29725 -0.810508,-26.39607 -1.839992,-2.09034 -5.720229,-5.06637 -8.62274,-6.61339 -8.016413,-4.2727 -8.470045,-4.93347 -8.470045,-12.33751 0,-7.80947 0.869037,-10.226 4.319096,-12.01009 3.717673,-1.92249 10.013562,-7.86712 11.645673,-10.99594 3.273195,-6.27484 2.85547,-14.23303 -1.059709,-20.1887 -1.13334,-1.724 -4.891289,-4.95191 -8.427798,-7.23909 -6.731955,-4.35377 -7.301542,-5.23915 -7.312541,-11.36681 -0.01304,-7.26282 1.251742,-9.81169 6.275559,-12.64696 5.889599,-3.32388 10.47444,-8.74215 12.084781,-14.28151 2.498231,-8.59363 -1.276909,-15.5039 -12.415114,-22.72548 l -5.535776,-3.58918 -0.268283,-5.52851 c -0.147555,-3.04069 -0.02738,-7.16321 0.267061,-9.16116 0.487221,-3.30609 0.910439,-3.82271 4.708047,-5.7471 8.73186,-4.42477 13.621384,-11.03111 13.585114,-18.35511 -0.03036,-6.12677 -2.539812,-10.41147 -8.649856,-14.76884 -10.840474,-7.73089 -10.067912,-6.67846 -10.067912,-13.71506 0,-8.67986 0.727783,-10.11943 6.619582,-13.09359 11.508373,-5.8094 15.549126,-16.15751 10.362418,-26.53744 -1.726359,-3.45489 -7.312223,-8.84249 -12.297882,-11.86139 -4.470596,-2.70702 -4.657404,-3.04925 -4.661704,-8.54012 -0.0073,-9.36473 0.501906,-10.55617 5.575377,-13.04444 6.019789,-2.95238 11.102693,-7.63925 12.335347,-11.37424 0.547249,-1.65817 0.832034,-5.26785 0.632853,-8.02149 -0.45013,-6.223 -2.748441,-9.34148 -12.123098,-16.44935 l -6.633009,-5.02916 0.582387,-5.19074 c 0.845338,-7.53439 1.84249,-9.0074 8.553216,-12.63486 14.80156,-8.00095 17.07564,-16.75162 8.533758,-32.83796 l -2.922425,-5.50361 1.640233,-3.21513 c 3.830631,-7.50864 8.701766,-8.45486 19.572574,-3.80196 8.25226,3.53211 13.0437,3.82717 18.58539,1.14448 3.50029,-1.69446 4.10494,-2.50195 7.82703,-10.452828 2.21855,-4.739075 4.61605,-9.099805 5.3278,-9.690504 0.71175,-0.5907 3.15509,-1.291586 5.42964,-1.557524 4.9162,-0.5748 7.83862,1.242256 10.55196,6.560847 5.36694,10.520059 14.53438,14.890949 24.08673,11.484149 4.29714,-1.53255 5.96076,-3.12509 10.91773,-10.451238 2.28842,-3.382146 4.89802,-6.543928 5.79911,-7.026179 2.54978,-1.364602 10.46435,-1.069592 12.66541,0.472095 1.05922,0.741903 3.04899,3.328816 4.4217,5.74869 4.85854,8.564792 9.56494,11.945032 16.68222,11.981582 6.83704,0.0351 11.82847,-2.99672 16.75574,-10.177548 6.33739,-9.235881 5.88823,-8.901638 11.962,-8.901638 6.12167,0 6.7658,0.461283 11.89253,8.516579 5.14407,8.082547 8.49566,10.219897 16.02594,10.219897 7.39159,0 12.19062,-2.85711 17.16621,-10.219897 5.18665,-7.675118 6.36465,-8.516579 11.92268,-8.516579 2.75363,0 5.6956,0.368744 6.53772,0.819431 0.84212,0.450687 3.12651,3.504862 5.07642,6.787052 4.83689,8.141693 8.14078,10.539303 15.137,10.984793 9.70747,0.61812 14.03419,-2.13332 20.17069,-12.826924 1.27183,-2.21634 3.04171,-4.420004 3.93304,-4.897031 2.27952,-1.219962 11.36211,-1.081543 12.94291,0.197251 0.7238,0.585515 2.71358,3.414681 4.42174,6.28704 5.89293,9.909224 11.13134,12.947014 19.56026,11.343144 5.62132,-1.06964 8.42346,-3.29998 13.38652,-10.654901 2.33303,-3.457422 4.97914,-6.680785 5.88024,-7.163036 2.2527,-1.205605 9.38978,-1.080075 11.93919,0.209992 1.15397,0.583936 3.38536,3.356819 4.95866,6.161962 5.13273,9.151553 8.78443,11.760133 16.47261,11.767193 6.93427,0.006 11.41097,-2.86967 16.95906,-10.895263 4.87304,-7.049107 7.73945,-8.683626 13.51661,-7.707581 4.13988,0.699429 6.28101,2.972393 8.5618,9.089015 2.32861,6.244879 4.89427,9.985639 8.56684,12.490569 2.53012,1.7257 3.70554,1.9619 8.08497,1.62466 2.90605,-0.22378 7.51462,-1.4177 10.64572,-2.75793 3.03671,-1.29983 7.37556,-2.54013 9.64189,-2.75624 3.62206,-0.34539 4.41822,-0.10777 6.58065,1.96397 4.62692,4.43286 4.7529,6.83182 0.8414,16.02192 -4.15932,9.77234 -4.43191,13.98472 -1.30437,20.15662 2.24439,4.42909 6.30876,7.93829 13.36464,11.53908 4.99538,2.54927 5.80372,4.04444 6.39202,11.82296 l 0.46964,6.20976 -5.0124,3.17209 c -9.92145,6.27879 -12.50204,9.95466 -12.60849,17.95996 -0.0577,4.33956 0.34425,5.84174 2.48614,9.2915 1.49857,2.41359 4.31565,5.26427 6.81327,6.89451 7.19119,4.69383 7.83394,5.54482 8.49592,11.24837 0.92455,7.96606 0.29,9.49213 -5.50412,13.23707 -6.38128,4.12445 -10.71306,8.89272 -11.87279,13.06912 -2.90863,10.47463 1.19595,19.57222 11.09324,24.58755 5.30304,2.68725 7.43988,8.30871 6.30233,16.5797 -0.56681,4.12121 -0.69719,4.27602 -6.60547,7.84354 -3.31498,2.00165 -7.20851,5.1121 -8.65229,6.91212 -2.35279,2.93331 -2.62179,3.86083 -2.59355,8.94241 0.0485,8.71508 3.45871,13.97828 12.38657,19.1165 1.78936,1.02983 3.66565,2.77722 4.16953,3.88312 1.35061,2.96428 1.96133,11.13464 1.12051,14.99062 -0.61635,2.82661 -1.4094,3.75763 -4.96257,5.826 -2.32593,1.35396 -5.25508,3.43014 -6.50922,4.61372 -3.63754,3.43289 -6.10206,10.05325 -6.13369,16.47681 -0.0381,7.7271 1.7143,10.47081 9.28133,14.53206 3.27024,1.75513 6.41928,4.07926 6.99789,5.16473 0.57861,1.08546 1.05766,4.72261 1.06457,8.08257 0.0118,5.70633 -0.16182,6.28337 -2.63279,8.75435 -2.83906,2.83905 -7.44845,5.56058 -8.17957,4.82947 -0.2457,-0.2457 -1.18713,-4.57431 -2.09207,-9.61913 -2.828,-15.76544 -7.11585,-26.14924 -16.79333,-40.66811 l -3.93016,-5.89634 -0.48278,-66.9204 c -0.39647,-54.95724 -0.2682,-68.44288 0.71749,-75.43698 0.74197,-5.26476 0.99034,-10.95543 0.65046,-14.90401 -0.30238,-3.51309 -0.865,-15.20209 -1.25026,-25.97556 -0.61495,-17.19681 -0.93506,-20.21195 -2.62204,-24.69808 -4.72223,-12.55766 -14.39972,-22.76786 -26.39301,-27.84582 l -6.38949,-2.70531 -21.71728,-0.67719 c -11.94449,-0.37244 -89.16856,-0.55032 -171.60903,-0.39528 l -149.89177,0.2819 -5.63761,2.11122 c -8.0292,3.00684 -13.29581,6.29955 -18.37191,11.48621 -5.6159,5.73823 -9.44306,11.30046 -11.56807,16.8125 -2.85086,7.39487 -3.28471,34.39754 -2.96372,184.46402 0.28514,133.31074 0.3851,141.20322 1.84448,145.63349 2.10128,6.37892 5.10991,12.2062 9.49862,18.39748 3.84977,5.43098 9.57557,9.52149 20.38495,14.56302 l 5.10995,2.38329 34.0663,0.54398 c 59.12478,0.94411 222.83152,0.82224 231.75268,-0.17253 7.40348,-0.82554 8.85706,-0.73146 16.36085,1.05886 7.07952,1.6891 10.38718,1.95776 23.5653,1.91411 23.79835,-0.0789 35.47236,-3.01944 50.31864,-12.67487 9.2653,-6.0258 21.69912,-18.25673 27.14986,-26.70683 4.47752,-6.94138 12.35964,-22.88759 14.83352,-30.00952 0.88662,-2.55243 2.01431,-4.5532 2.50597,-4.44614 1.34779,0.29348 12.76504,7.79714 13.38151,8.79462 0.73111,1.18295 0.74604,8.80797 0.0274,14.00549 l -0.58874,4.25828 -6.78059,3.66852 c -8.54327,4.62219 -12.15871,8.18153 -13.4271,13.21875 -1.53013,6.07669 -1.19839,9.0328 2.08021,18.5364 2.60091,7.53918 3.00998,9.72228 2.73954,14.62022 -0.26644,4.8255 -0.67627,6.11605 -2.53137,7.97115 -3.27511,3.2751 -8.1109,3.5197 -16.46631,0.83288 -15.44184,-4.9656 -24.21097,-1.08065 -27.68586,12.26551 -2.34807,9.01833 -4.54089,11.07155 -11.82431,11.07155 -4.62932,0 -5.25734,-0.51908 -9.27337,-7.66492 -4.81601,-8.56924 -9.62342,-11.92732 -17.06247,-11.91846 -9.00972,0.0107 -12.14488,2.21635 -17.54669,12.34429 -1.74882,3.27888 -3.79873,6.44066 -4.55538,7.02618 -1.67517,1.2963 -8.75038,1.40001 -11.45457,0.16789 -1.08239,-0.49317 -3.72818,-3.84657 -5.87952,-7.452 -4.89199,-8.19848 -9.02093,-11.36359 -15.52794,-11.9032 -2.54019,-0.21065 -5.97755,0.0655 -7.63859,0.61371 -3.99551,1.31864 -8.74396,6.70731 -11.74741,13.33127 -2.14651,4.73404 -2.80967,5.47267 -5.60684,6.24501 -3.49673,0.9655 -8.48688,0.4549 -10.54733,-1.0792 -0.72987,-0.54343 -2.59927,-3.38415 -4.15421,-6.3127 -6.729,-12.67324 -16.76658,-16.73952 -26.86126,-10.88168 -4.48261,2.60122 -5.62445,3.97379 -9.36108,11.25278 -3.39451,6.61251 -5.30537,7.93435 -11.46999,7.93435 -3.89093,0 -5.7172,-1.64892 -9.68551,-8.74492 -4.04087,-7.22575 -8.56406,-11.25947 -13.91179,-12.40636 -9.5012,-2.03764 -18.1602,3.2225 -22.88256,13.90061 -2.38819,5.40013 -3.69515,6.50026 -8.3449,7.02435 -5.24554,0.59126 -8.76247,-1.43949 -10.82466,-6.25038 -2.49736,-5.82611 -6.55023,-11.24779 -9.58304,-12.8196 -10.46199,-5.42213 -20.20434,-1.45444 -26.67799,10.86495 -1.71968,3.27255 -3.82153,6.32197 -4.6708,6.77647 -2.71687,1.45403 -8.72529,1.79082 -10.98103,0.61551 z"
       id="path781" /><path
       style="fill:#6dcbd7;stroke:#6dcbd7;stroke-width:3.21887"
       d="m 374.37324,264.31489 c 2.5838,-16.07012 2.57814,-25.74859 -0.0238,-40.76313 -1.64737,-9.50593 -6.27972,-23.21343 -10.74596,-31.79809 -11.44498,-21.99871 -35.33225,-44.50395 -58.98924,-55.57634 l -5.9616,-2.79027 93.39356,-0.0555 c 89.17185,-0.053 93.6266,0.017 98.54889,1.549 7.11701,2.21506 12.00546,5.26188 16.54712,10.3133 4.46595,4.96722 6.79865,9.43983 8.64666,16.57873 1.29498,5.00253 1.75989,17.02156 0.79723,20.6101 -0.46709,1.74118 -0.64734,1.77536 -3.36765,0.63874 -4.65834,-1.94638 -25.65988,-1.63154 -34.09105,0.51107 -6.57351,1.67053 -16.83605,6.23561 -23.85481,10.61134 l -3.49172,2.17685 -3.25704,-5.27683 c -5.26553,-8.53085 -16.70276,-19.44089 -24.25167,-23.13381 -12.70938,-6.21743 -19.84575,-5.87523 -27.72902,1.32963 -5.49845,5.02527 -10.01383,13.53724 -11.86932,22.37492 -1.58016,7.52623 -1.60104,13.09199 -0.0789,21.00361 2.40993,12.52545 7.04321,21.35929 16.5114,31.48083 l 5.18945,5.54753 -14.21952,8.1499 c -20.3476,11.66218 -18.41572,10.95084 -17.70306,6.51843 z"
       id="path554" /><path
       style="fill:#6dcbd7;stroke:#6dcbd7;stroke-width:3.21887"
       d="m 510.43259,348.81988 c -5.06036,-3.80662 -14.22074,-8.78763 -24.71798,-13.44055 -4.54553,-2.01481 -4.55917,-2.0324 -4.02127,-5.18641 0.29685,-1.74061 0.75581,-11.78778 1.01991,-22.32705 0.4357,-17.38737 0.31167,-19.98056 -1.33902,-27.9963 -1.00056,-4.85871 -1.61306,-9.04016 -1.36111,-9.29211 0.25195,-0.25194 3.69364,-1.89869 7.6482,-3.65943 8.96147,-3.99004 15.9395,-8.69239 23.543,-15.86514 l 5.89851,-5.56435 v 49.80627 c 0,27.39345 0.24371,51.58436 0.54158,53.7576 0.69718,5.08641 -0.17858,5.05818 -7.21182,-0.23253 z"
       id="path625" /><path
       style="fill:#6dcbd7;stroke:#6dcbd7;stroke-width:3.21887"
       d="m 441.10183,508.86141 c -8.98333,-0.86035 -14.34281,-2.50403 -22.7913,-6.98978 -20.96077,-11.12917 -38.39185,-31.93562 -45.0595,-53.78485 -2.49107,-8.16299 -2.40675,-8.61473 1.83786,-9.84566 26.22937,-7.60653 116.89993,-37.11857 124.95183,-40.67016 6.2144,-2.74107 7.69387,-4.21603 7.69387,-7.67037 0,-2.23341 -0.4716,-3.08193 -2.13384,-3.83931 -2.56011,-1.16646 -2.09834,-1.29611 -35.21574,9.88718 -13.28188,4.48511 -24.29534,8.15474 -24.47435,8.15474 -0.17902,0 2.70501,-3.73665 6.40893,-8.30366 3.70393,-4.56702 8.79656,-11.59395 11.31694,-15.6154 4.37769,-6.98496 11.47793,-23.49165 13.45016,-31.26906 1.07875,-4.254 0.96047,-4.25843 10.8544,0.40678 7.68212,3.62229 20.0903,11.8624 25.82365,17.14917 l 4.32888,3.99169 -0.62191,31.62986 -0.62191,31.62985 -20.10036,6.16188 c -76.26664,23.37995 -87.39073,27.03004 -88.7431,29.11877 -0.98436,1.52036 0.32314,5.05329 2.36539,6.39143 2.99005,1.95915 5.40718,1.29631 56.48329,-15.48929 24.59162,-8.08175 45.95758,-14.96756 47.47992,-15.30177 l 2.76789,-0.60767 v 16.96218 16.96218 l -3.5112,4.90332 c -7.06685,9.86874 -25.61618,21.84663 -38.22004,24.67987 -7.04891,1.58454 -24.63023,2.28126 -34.26976,1.35808 z"
       id="path627" /><path
       style="fill:#6dcbd7;stroke:#6dcbd7;stroke-width:3.21887"
       d="m 273.10287,509.7215 -120.9354,-0.43857 -5.2563,-2.25535 c -14.61669,-6.27166 -24.15887,-17.81511 -25.90438,-31.33727 -0.39641,-3.071 -0.73329,-16.0704 -0.74862,-28.88755 l -0.0279,-23.30393 2.76788,4.12247 c 5.1008,7.59708 16.71474,11.39987 34.81588,11.39987 12.69759,0 28.23374,-3.48985 38.39566,-8.62473 l 3.1627,-1.59813 5.35388,3.46573 c 11.49246,7.43941 26.70366,13.26533 45.80764,17.54439 10.47439,2.34615 11.09802,2.38475 38.75042,2.39898 23.37656,0.012 29.68076,-0.24918 37.47295,-1.55259 11.30976,-1.89181 28.38905,-5.32913 30.44676,-6.1276 0.97017,-0.37647 1.49313,-0.17495 1.49821,0.57735 0.0139,2.05776 8.1165,19.70383 12.18219,26.53078 8.90864,14.95903 18.61236,25.93078 29.1154,32.92007 3.7473,2.49366 7.17735,4.86491 7.62234,5.26946 0.45903,0.4173 -2.30453,0.64893 -6.38744,0.53537 -3.95807,-0.11009 -61.61743,-0.39753 -128.13191,-0.63875 z"
       id="path629" /><path
       style="fill:#6dcbd7;stroke:#6dcbd7;stroke-width:3.21887"
       d="m 119.84599,410.0648 c 0.20711,-5.38673 0.39546,-37.00453 0.41855,-70.26176 l 0.042,-60.4677 1.96742,6.0731 c 4.57004,14.10692 14.89733,29.61438 26.09381,39.1825 3.76113,3.21412 7.07567,6.77433 7.36564,7.91157 0.28998,1.13723 0.2727,10.25734 -0.0384,20.2669 l -0.56562,18.19921 -2.89927,5.70865 c -3.11497,6.13339 -8.07897,11.39168 -16.24412,17.20714 -6.60294,4.70281 -12.13389,9.97923 -13.83634,13.19959 -0.74289,1.40524 -1.64984,4.85445 -2.01546,7.66492 -0.47716,3.66787 -0.55849,2.34596 -0.28819,-4.68412 z"
       id="path631" /><path
       style="fill:#6dcbd7;stroke:#6dcbd7;stroke-width:3.21887"
       d="m 120.31855,201.40865 c -0.007,-33.29547 0.58104,-40.87794 3.65862,-47.16829 3.63414,-7.42793 9.8254,-13.61003 17.36262,-17.33697 l 6.47468,-3.20153 26.44875,-0.2134 26.44875,-0.21341 -10.23815,5.32335 c -12.11146,6.29738 -20.41405,11.9493 -29.9891,20.41481 -17.67656,15.62823 -32.69043,39.87411 -38.56248,62.27451 l -1.59815,6.09649 z"
       id="path633" /><path
       style="fill:#f3ebda;stroke:#f3ebda;stroke-width:3.21887"
       d="m 527.02588,423.47842 c 0.29331,-22.60088 0.63231,-41.21277 0.75333,-41.35978 0.50197,-0.60978 4.70049,9.3782 6.40693,15.24165 1.36768,4.69946 1.94226,9.47932 2.24383,18.66612 0.35389,10.78075 0.12571,13.84397 -1.7968,24.12054 -1.84154,9.84379 -6.50082,24.42395 -7.80499,24.42395 -0.18458,0 -0.0956,-18.49162 0.1977,-41.09248 z"
       id="path783" /><path
       id="path408"
       style="fill:#e7aa9c;stroke-width:0.567515"
       d="m 395.06697,205.21371 c -0.0362,0.0359 -0.058,0.59785 -0.0986,1.72028 -0.12429,3.4362 1.83693,10.40112 4.37496,15.54127 5.85634,11.85941 13.83126,20.03714 21.04129,21.57666 3.1828,0.67917 5.1298,1.91904 5.1298,3.26432 0,0.41982 0.1277,0.7626 0.28376,0.7626 0.15607,0 0.28376,-0.37367 0.28376,-0.83132 0,-1.4309 -4.01472,-5.34951 -10.49903,-10.24631 -9.01444,-6.80695 -14.38779,-12.24275 -16.53996,-16.73061 -1.71032,-3.56723 -3.36802,-9.52571 -3.78861,-13.62037 -0.10088,-0.98211 -0.15117,-1.47226 -0.18733,-1.43652 z m -65.33407,1.3545 c -1.18884,0.18743 -2.15757,0.40609 -3.81743,0.57195 -7.42846,0.74207 -13.85667,2.308 -17.93879,4.37053 -3.71534,1.87747 -8.49658,6.44347 -10.46024,9.98805 -1.54801,2.79433 -1.72467,3.99693 -1.67927,8.74661 0.0356,3.72775 0.40334,5.26152 1.48575,8.16618 0.82338,1.36465 1.55496,2.52831 2.38263,3.71393 2.57743,-3.74816 7.44118,-8.14056 11.48664,-10.03349 4.59443,-2.14998 10.37592,-2.72396 14.50379,-1.44096 3.09765,0.96322 7.08775,3.24418 11.15078,6.13958 0.3245,-0.92612 0.41216,-1.79154 0.45889,-2.6436 -1.21245,-0.24701 -2.03644,-0.57239 -2.7611,-1.06076 -3.69161,-2.48818 -3.48944,-6.73957 0.39128,-8.21678 0.68155,-0.25938 1.74946,-0.39462 2.49285,-0.47441 0.001,-0.35589 -0.0218,-0.53731 -0.0299,-0.86568 -0.10912,-1.69859 -0.32183,-3.19109 -1.20486,-4.85159 -0.16843,-0.24692 -0.40676,-0.45393 -0.56086,-0.70828 -3.52559,1.49485 -5.06298,1.67595 -6.55081,0.90669 -1.96795,-1.01764 -3.44943,-2.94737 -3.44943,-4.49357 0,-1.33052 2.25505,-3.42892 5.64633,-5.62749 -0.0512,-0.0565 0.0203,0.0336 -0.89118,-1.03084 h 10e-4 c -0.34583,-0.40374 -0.55381,-0.79604 -0.65508,-1.15609 z m 186.15827,13.54499 c 0.008,0.41152 0.0805,0.42281 0.20506,0.14188 -0.0634,-0.0569 -0.13153,-0.10596 -0.20506,-0.14188 z m -0.26602,2.05835 c -0.0302,0.003 -0.0604,0.005 -0.0909,0.005 -0.14154,0.0124 -0.45825,0.47404 -0.98539,1.7879 -1.33364,3.32374 -7.01229,9.35225 -12.09849,12.84446 -6.07007,4.16813 -16.95821,9.45402 -25.41626,12.3368 -9.62616,3.28142 -10.94136,4.01951 -11.80143,6.62508 -0.73913,2.24106 0.79584,12.54621 2.86085,19.20019 3.70682,11.94681 4.93346,29.16444 3.15902,44.33601 -0.71843,6.14184 -1.00399,8.53548 -1.5651,9.61118 0.0589,0.22587 0.0297,0.52373 -0.13633,0.87344 -0.0661,0.13926 -0.13307,0.27871 -0.19952,0.41788 0.64381,-0.068 1.13929,-0.17499 1.23257,-0.32588 0.16645,-0.26933 0.72055,-4.67531 1.23146,-9.78963 1.80618,-18.07507 0.24938,-37.20563 -4.00918,-49.27628 -0.4749,-1.34542 -0.86347,-3.14636 -0.86347,-4.00143 0,-2.87004 3.80159,-6.24931 7.03187,-6.24932 2.03034,0 8.9038,-2.54345 14.72768,-5.45125 8.24303,-4.11613 15.10296,-9.95484 19.76993,-16.82704 2.12341,-3.1269 6.92659,-14.01174 7.15268,-16.11655 z m -216.86838,19.9506 c 3e-5,0.002 -4e-5,0.005 0,0.007 0.002,-1.8e-4 0.005,-4.5e-4 0.007,-0.001 0.003,-5.6e-4 0.0112,-0.004 0.008,-0.005 -0.005,-5e-4 -0.01,-0.001 -0.0144,-0.001 z m -123.23281,0.0798 c -3.19524,-0.045 -6.18069,0.21058 -8.74993,0.45999 -1.94329,0.18864 -2.59759,0.32696 -4.36056,0.644 -2.95114,0.62051 -2.79232,0.57821 -4.93805,1.88987 -1.69289,1.30964 -1.45986,0.95115 -2.3676,2.85199 3.98151,0.53755 5.34346,1.51719 6.29144,3.78638 0.68573,1.6409 0.70128,2.23287 0.092,3.50375 -1.23707,2.58178 -2.99189,3.02372 -11.00115,2.617 -0.31853,1.89539 -0.44584,2.69009 -0.72824,5.65076 -0.008,1.95114 0.12349,3.31712 0.35248,5.00345 1.79624,-1.29859 3.72357,-2.72447 4.90258,-3.32196 4.69657,-2.37971 8.24416,-1.77988 10.11219,1.7103 1.21267,2.26555 0.0567,3.63843 -7.05958,8.37861 -2.03204,1.35339 -2.79628,1.76558 -4.29848,2.70678 1.00847,1.50143 1.95807,2.57853 2.91849,3.55362 2.22035,1.83569 5.47375,3.39446 9.10574,3.89723 7.88577,1.09132 15.04299,-0.67119 21.49352,-5.29385 11.99067,-8.59342 13.47695,-22.60192 3.45054,-32.53347 -4.10306,-4.0645 -7.79403,-5.40003 -15.21207,-5.50445 z m -46.3589,24.86758 c -0.0667,0.12801 -0.13862,0.2415 -0.21392,0.3414 -0.22361,0.83391 0.7336,5.53491 2.92846,14.0593 2.24304,8.71151 8.84739,21.02773 15.93366,29.71141 1.70419,2.08857 6.16173,6.53769 9.9038,9.88496 3.74252,3.34779 7.45953,7.2045 8.26001,8.57037 1.4555,2.48324 1.45503,2.48488 0.81913,12.03753 -1.15558,17.35936 -0.80113,21.34604 2.79878,31.54143 2.58354,7.31614 7.95684,18.37746 11.55425,23.78354 1.70055,2.55644 5.00557,6.83694 7.34334,9.51031 18.0177,20.60922 48.90189,33.69423 85.49527,36.22121 h 10e-4 c 16.27322,1.124 46.11749,-0.84615 64.30324,-4.24417 9.9136,-1.85258 19.11354,-4.01932 19.69122,-4.63766 0.24471,-0.26216 0.22112,-2.00917 -0.0554,-3.88172 -0.60543,-4.12141 0.43306,-17.19979 1.46423,-18.44424 0.18249,-0.22028 0.34682,-0.98762 0.53426,-1.56843 -0.13931,0.0636 -0.2773,0.12505 -0.41344,0.184 -0.2843,1.02381 -0.77642,1.18844 -2.67575,1.44428 -1.39948,0.18858 -7.01588,1.00261 -12.47757,1.80896 -5.46169,0.80633 -15.80646,1.9101 -22.98437,2.45295 -13.80635,1.04409 -40.98449,1.3921 -48.8063,0.62515 -2.49694,-0.24493 -6.456,-0.56887 -8.79649,-0.71937 -5.33195,-0.34281 -12.07061,-1.19241 -17.59297,-2.21907 -2.34087,-0.43516 -6.04455,-1.1036 -8.22897,-1.48419 -13.63955,-2.37678 -30.05653,-8.01546 -39.15854,-13.44966 -6.65017,-3.97027 -15.29221,-10.69178 -19.86303,-15.44927 -1.56054,-1.62444 -3.77225,-3.55488 -4.91477,-4.28962 -1.69884,-1.09257 -2.40054,-2.174 -3.84957,-5.9323 -2.56119,-6.64104 -3.50721,-11.91647 -3.31642,-18.48415 0.16356,-5.62842 0.16306,-5.62882 2.71676,-6.02985 12.06115,-1.89415 14.2498,-2.37416 17.30921,-3.79525 6.25701,-2.90644 9.22179,-6.4136 8.53157,-10.09225 -0.61496,-3.2777 -4.23147,-6.17581 -12.78793,-10.24852 -10.268,-4.8867 -11.55376,-5.57034 -16.17419,-8.6014 -15.76309,-10.34063 -30.91989,-28.41629 -35.7601,-42.64677 -0.77624,-2.28235 -1.41214,-4.65893 -1.41214,-5.28055 0,-0.30578 -0.0414,-0.53972 -0.10641,-0.67836 z m 339.16125,63.11389 c -0.12246,-3.3e-4 -0.29531,0.0573 -0.21946,0.0388 0.0862,-0.0234 0.17542,-0.0304 0.26491,-0.0355 -0.014,-0.003 -0.0289,-0.003 -0.0455,-0.003 z m -7.15268,11.73493 c 0.006,0.0148 -0.0908,0.0255 -0.0388,0.0433 0.0132,-0.0144 0.0271,-0.0297 0.0388,-0.0433 z m 6.02097,0.95325 c -10e-4,0.002 -0.002,0.005 -0.003,0.007 0.0108,10e-4 0.02,0.0106 0.031,0.0111 0.011,3.7e-4 -0.0308,-0.0164 -0.0277,-0.0177 z m 0.33808,0.006 v 0.001 c -0.10047,0.21006 -0.25026,0.4872 -0.45446,0.57861 -0.0197,0.041 -0.036,0.084 -0.061,0.12192 -0.15654,0.23782 -0.0873,0.0762 -0.12415,0.16515 -0.052,0.0465 -0.10759,0.0887 -0.15629,0.13856 -0.01,0.0102 0.0487,-0.0193 0.0421,-0.007 -0.0266,0.051 -0.065,0.0952 -0.0953,0.1441 -0.002,0.002 0.01,-0.006 0.008,-0.006 -0.0657,0.0566 -0.13218,0.11235 -0.1984,0.16848 -0.49624,1.25722 -1.67021,3.31823 -3.20336,5.48118 -0.99575,1.40434 -2.85538,4.34149 -4.13222,6.52642 -1.27718,2.1843 -3.02067,4.61106 -3.87284,5.3914 -0.8523,0.78021 -2.9702,3.33415 -4.70639,5.67515 -4.79072,6.45937 -17.72189,19.06903 -23.37121,22.78928 -6.70602,4.41584 -16.21138,10.08565 -18.53513,11.05657 -1.06716,0.4459 -3.59375,1.56919 -5.6153,2.49507 -2.02154,0.9255 -3.81056,1.68259 -3.97593,1.68259 -0.16537,0 -1.383,0.49297 -2.70457,1.09513 -1.32201,0.60228 -4.07948,1.48402 -6.12628,1.95859 -3.79337,0.87975 -16.82943,3.18895 -18.00198,3.18895 -0.37342,0 -0.66985,-1.01863 -0.70163,-2.41194 -3.6e-4,-0.0161 -0.005,-0.005 -0.006,-0.02 -0.10416,-0.005 -0.20707,-0.008 -0.31147,-0.0222 -0.30123,0.77898 -0.81164,2.90382 -1.60278,6.79133 -1.66674,8.18943 -1.87656,10.67545 -1.11287,13.12823 0.46741,1.50044 6.96788,-0.60926 29.47643,-9.56352 21.37007,-8.50169 36.72503,-18.24267 45.18507,-28.66617 8.75344,-10.78539 12.69632,-17.33471 19.78655,-32.866 2.07546,-4.54607 5.23291,-13.91768 4.94359,-14.67115 -0.0481,-0.12521 -0.23813,-0.23081 -0.37243,-0.34472 z M 169.9408,399.2057 c 0.006,0.007 5.7e-4,0.006 0.007,0.0133 0.1324,-5.7e-4 0.0912,-0.009 -0.007,-0.0133 z m 4.1544,5.5898 c -0.35236,0.58825 -0.80153,1.00342 -1.29022,1.24365 -0.86358,3.03553 -8.3541,11.29719 -12.53299,13.62369 -5.06921,2.82273 -6.55806,3.40592 -12.8611,5.0367 -6.54144,1.69287 -6.64928,1.70176 -9.81845,0.78033 -0.41639,-0.12104 -0.77181,-0.31398 -1.16606,-0.46443 -0.0846,0.18863 -0.16811,0.37598 -0.25051,0.56086 2.87933,1.28138 6.45481,2.34197 10.40703,2.91184 5.38588,0.77679 17.04601,0.68056 23.62282,-0.19508 5.90753,-0.7862 15.92818,-3.67475 17.92993,-5.1686 0.93016,-0.694 0.69818,-1.06128 -2.8542,-4.52792 -4.20031,-4.09913 -8.00428,-8.95597 -11.18625,-13.80104 z"
       sodipodi:nodetypes="csccsssccsccccsscccccccscccccscccccccccccccccccscsccssccscsccccssscccccccccsccccccssscscscscccsscccsccsssssscssscssssccsssssccsscccsccsscccscssccccccccscsscsscccccccscccccccccsccccscc" /><path
       id="path1674"
       style="fill:#f9f4ec;stroke-width:0.567515"
       d="m 247.845,133.03984 c -5.60318,-0.005 -11.2003,0.13679 -13.51617,0.42563 -9.71768,1.21194 -26.52293,6.13224 -36.27109,10.61875 -6.83939,3.14765 -18.60674,10.28824 -24.24243,14.71105 -5.49154,4.30968 -18.84377,17.61098 -22.64962,22.56317 -6.30087,8.19859 -12.66988,19.78341 -16.01678,29.13392 -1.17317,3.27703 -2.34511,6.46967 -2.6048,7.09394 -1.09082,2.62205 -3.5562,14.39981 -4.27632,20.43054 -0.1118,0.9364 -0.30186,6.0211 -0.42342,11.29931 -0.25322,10.99076 1.14269,16.16762 3.2621,21.02467 0.95434,2.9255 2.38178,5.00224 3.62235,7.84323 1.30961,2.18585 8.96288,11.62001 8.92395,11.83802 -0.21994,1.16964 1.41153,0.82224 1.55703,0.0616 0.16055,-0.83928 0.39758,-0.46357 -0.11718,-2.11667 -3.99785,-5.72803 -6.37852,-12.33443 -8.75769,-18.18265 -1.80534,-6.5823 -3.13095,-15.67589 -2.63761,-20.53755 1.34303,-11.49509 2.40892,-10.79917 5.43196,-20.87778 0.73942,-3.06335 2.04007,-6.6364 2.58153,-7.09394 0.18467,-0.15607 0.80787,-1.56067 1.38554,-3.12133 4.29916,-8.82053 9.6164,-17.91625 14.71215,-25.4218 1.09434,-1.62484 3.01142,-4.10329 4.26081,-5.50778 9.47861,-10.94679 19.53064,-19.44463 33.50334,-28.28819 1.72803,-1.10678 6.28684,-2.83894 9.364,-3.55805 1.24853,-0.29172 3.54733,-1.00291 5.10764,-1.57951 4.26618,-1.57617 8.72847,-2.81148 13.39756,-3.7088 2.30729,-0.44339 5.47268,-1.08522 7.03298,-1.42655 8.26672,-1.71713 12.39575,-1.90321 19.01176,-2.31551 29.30546,1.19548 29.99378,2.27317 51.92764,9.96588 6.46869,2.24577 16.55909,7.97133 20.95816,11.89232 17.82713,9.28765 32.54749,34.85225 37.10793,44.28155 0.77657,0.89466 1.27923,0.54977 1.49083,-0.0743 -0.48999,-6.17735 -5.60257,-17.2992 -10.27623,-24.71905 -0.86972,-1.35088 -1.92221,-3.0948 -2.3399,-3.87507 -3.31625,-6.19549 -16.71293,-20.28856 -24.68026,-25.96382 -2.73829,-1.95072 -5.19704,-3.54697 -5.46344,-3.54697 -0.26644,0 -0.81346,-0.39736 -1.21594,-0.8823 -3.14305,-3.78729 -27.48658,-15.1021 -34.0354,-15.81949 -0.47334,-0.0519 -1.1148,-0.24986 -1.42432,-0.44115 -1.41147,-0.87227 -8.21853,-2.26773 -14.73988,-3.02158 -0.9364,-0.10824 -3.36253,-0.40427 -5.3914,-0.6573 -2.34429,-0.29241 -7.95586,-0.44241 -13.5594,-0.44669 z m 162.45677,39.6252 c -6.56106,0.45616 -12.31376,7.44111 -13.44413,13.03843 -0.0681,0.39991 -0.1917,0.79722 -0.30371,1.22814 1.00587,0.34788 2.01868,0.73044 2.97613,1.21373 0.005,2e-5 0.0115,-0.003 0.0166,-0.003 0.12704,0.001 0.24805,0.0158 0.36578,0.0366 l 0.0909,-0.54091 3.76755,0.31811 c 10.10309,0.85235 23.36408,6.17328 29.2237,11.72606 5.95422,5.46377 4.3115,3.29312 7.18372,6.69602 1.47969,-1.61101 1.64985,-2.13024 1.3401,-4.10008 -0.43313,-2.75408 -4.79319,-10.74193 -7.84546,-14.37298 -3.21665,-3.82704 -9.26704,-8.86846 -14.05486,-11.71165 -3.49409,-2.07479 -7.17279,-3.41926 -9.31634,-3.52813 z m 85.98741,18.15937 c -2.91515,0.0228 -5.61842,0.2531 -8.44068,0.69277 -9.15867,2.32929 -18.1574,3.95548 -25.67341,9.51585 -5.16033,3.35043 -9.98229,9.16509 -13.79438,16.63307 -1.2381,2.42541 -2.57045,4.75886 -2.96062,5.18523 -0.39016,0.42636 -0.70939,0.91538 -0.70939,1.08737 3.02704,-1.89585 3.77193,-4.94139 5.70507,-7.46859 3.87542,-3.1517 7.21614,-7.38277 12.17166,-8.95832 0.62426,-0.18215 3.4207,-1.12885 6.21384,-2.1038 5.75163,-2.00736 7.28107,-2.00621 19.92178,0.009 3.76206,0.59998 11.42387,1.36161 17.02545,1.69146 15.60769,0.92743 13.7862,-12.10205 0.25384,-15.73303 -3.67073,-0.38889 -6.79837,-0.57369 -9.71316,-0.55089 z m -176.77209,47.46732 c -4.07519,0.0197 -7.53864,2.18679 -10.23744,6.4056 -1.83699,2.87156 -4.63647,11.3678 -5.00677,15.19656 -0.16452,1.70118 -0.45889,4.54713 -0.65508,6.32357 4.98595,-3.92303 6.67566,-5.4073 12.04749,-6.27148 9.26361,0.12464 20.14782,10.47925 27.27287,15.08682 3.48761,2.20907 10.47947,8.74349 12.47315,11.65622 0.89049,1.30119 2.06522,2.82176 2.61145,3.3785 0.54624,0.55637 0.99315,1.62915 0.99315,2.38311 0,0.75432 0.21196,1.45662 0.47109,1.56067 0.76035,0.3053 4.18178,7.41258 4.46253,9.26978 0.14154,0.9364 0.62214,2.79733 1.06741,4.13444 0.44528,1.33747 0.80916,3.70012 0.80916,5.24951 0,1.98779 0.31024,3.12787 1.053,3.87064 0.5791,0.57908 1.22268,1.7283 1.42988,2.55382 0.46121,1.83717 0.78285,1.92067 0.86457,0.2239 0.0338,-0.7023 0.12787,-2.17075 0.20838,-3.26321 0.13161,-1.77738 -0.15367,-5.35904 -0.96987,-12.20158 -0.71899,-6.02811 -7.21273,-23.77834 -11.10867,-30.36206 -2.10659,-3.56039 -7.67066,-11.69996 -10.08558,-14.7554 -7.52415,-9.51933 -22.35799,-20.46535 -27.70073,-20.43941 z m 106.46673,9.94038 c -0.30453,-0.1882 -1.13144,0.20727 -1.83777,0.87788 -14.92301,11.92208 -32.57302,21.65572 -48.95594,28.63624 -0.9364,0.41685 -2.2632,0.91858 -2.94842,1.11507 l -1.24588,0.35692 1.5119,2.50172 c 1.00246,1.65963 1.65778,2.27033 1.9464,1.81561 0.28699,-0.45156 0.44089,-0.2978 0.45224,0.45002 0.0144,0.94148 0.11118,0.98986 0.56752,0.28376 0.30259,-0.46823 0.55333,-0.66643 0.55864,-0.44005 0.005,0.22638 0.64621,0.16946 1.42433,-0.12636 0.77807,-0.29582 3.77917,-0.67868 6.66831,-0.85127 2.90965,-0.17381 6.13901,-0.71548 7.23914,-1.21373 5.17197,-2.34267 7.01313,-3.40705 7.94743,-4.59443 0.55679,-0.70785 1.25006,-1.28689 1.53961,-1.28689 0.28954,0 2.29547,-1.41738 4.4581,-3.14905 2.16221,-1.73166 5.03966,-3.88767 6.39341,-4.79173 4.18999,-2.79792 12.48214,-10.79089 13.98503,-13.47959 0.93313,-1.73205 1.1835,-2.40032 1.12066,-3.78846 -0.006,-1.61201 -0.6807,-2.29894 -0.82471,-2.31566 z m -55.86699,69.52061 c -0.13762,0 -0.40898,0.25538 -0.60187,0.56752 -0.1929,0.31213 -0.0801,0.56751 0.2505,0.56751 0.33052,0 0.60077,-0.25538 0.60077,-0.56751 0,-0.31214 -0.11172,-0.56752 -0.2494,-0.56752 z m -208.54741,62.43332 c -0.18303,0.004 -1.43296,1.90789 -2.77772,4.22976 -2.97628,5.13771 -8.95758,10.92093 -16.90242,16.34267 -6.26949,4.2784 -5.03693,3.28949 -8.74439,7.20145 -1.04277,1.43732 -2.22488,3.00424 -2.27006,4.91145 0.34717,1.55001 0.49369,2.19963 1.59949,2.35762 0.84048,0.12336 3.05907,-0.35948 4.93028,-1.07296 3.44542,-0.81484 5.32923,-2.46055 8.83528,-4.01359 5.70572,-3.60457 8.55674,-6.41541 12.34567,-10.38929 2.60693,-2.71728 3.63341,-4.54295 5.15308,-9.16338 l 1.14833,-3.49265 -1.49194,-3.45941 c -0.82044,-1.90229 -1.64261,-3.45561 -1.82558,-3.45164 z"
       sodipodi:nodetypes="ccssscssscccsccccsccccscscccccccccscsssscccccccccccccccscsccsscccccccssssscccccssscsscscsccssccccccccscssccscccccsssssscsccccccccsss" /><path
       style="fill:#659eac;stroke-width:0.567515"
       d="m 258.65644,464.63775 c -4.05773,-0.23455 -9.42075,-0.59992 -11.91782,-0.81183 -2.49706,-0.21197 -5.94472,-0.48977 -7.66145,-0.61734 -1.71673,-0.12758 -5.0367,-0.4917 -7.3777,-0.80917 -2.341,-0.31741 -7.19325,-0.96267 -10.78279,-1.43382 -11.92224,-1.56487 -18.5011,-2.56733 -31.49709,-4.79937 -3.43346,-0.58964 -7.00881,-1.18775 -7.94521,-1.32906 -0.9364,-0.14131 -4.00098,-0.76473 -6.81018,-1.38542 -2.8092,-0.62069 -6.76064,-1.30727 -8.78099,-1.52576 -5.89853,-0.63789 -19.7539,-4.43513 -25.55368,-7.00331 -2.45967,-1.08912 -8.96867,-5.79921 -10.49903,-7.59732 -3.28251,-2.81176 -4.21562,-6.60321 -6.04228,-9.70633 -1.02782,-1.47741 -0.80337,-1.35273 1.17243,0.65111 2.76658,2.80585 8.59196,5.70313 14.29151,7.10796 7.46861,1.84085 20.53202,2.34701 30.02064,1.16312 6.51661,-0.81302 21.95064,-5.60047 28.43075,-8.81879 l 2.0413,-1.01381 3.31576,2.48004 c 3.59703,2.69048 14.93592,8.53095 21.10345,10.86996 11.67907,4.42929 23.19457,7.3378 39.0325,9.85848 7.28287,1.15909 32.26165,1.34336 45.96873,0.33909 13.4118,-0.98265 32.228,-3.862 43.03014,-6.58471 3.48783,-0.87914 6.53357,-1.4798 6.76824,-1.33474 0.23472,0.14506 0.42671,0.7401 0.42671,1.32237 0,1.1302 2.8411,8.55642 4.60874,12.04647 1.06034,2.09362 1.466,3.65906 0.59078,2.28005 -0.3623,-0.57086 -1.24201,-0.47989 -4.20358,0.43483 -2.05997,0.6363 -6.25516,1.39751 -9.32269,1.69165 -3.06759,0.29409 -9.79117,1.04644 -14.94137,1.67184 -12.61308,1.53156 -13.81627,1.65726 -22.37383,2.33749 -9.36451,0.7444 -45.31904,1.08134 -55.09199,0.51632 z m 114.6648,-16.08406 c -2.32693,-7.55953 -2.96312,-10.57491 -2.33885,-11.08607 0.33529,-0.27445 2.92532,-1.13168 5.75563,-1.90486 2.83037,-0.77319 5.96731,-1.83041 6.97096,-2.34946 2.02239,-1.04582 36.95596,-12.80121 44.28082,-14.05451 3.92142,-1.38593 9.50015,-0.82131 9.42302,4.50329 -0.92652,1.75736 -1.06443,2.77106 -10.89561,10.19126 -2.03585,0.72614 -17.31988,7.98239 -29.78325,9.95717 -6.75269,2.14895 -15.75933,5.73667 -21.57687,7.44058 -0.6468,0.6468 -0.93827,0.21855 -1.83585,-2.6974 z"
       id="path1664"
       sodipodi:nodetypes="ssssssssssccsssscsssssssssssssssssscccccs" /></g></svg>
