<?xml version="1.0" encoding="UTF-8" standalone="no"?>
<!-- Uploaded to: SVG Repo, www.svgrepo.com, Generator: SVG Repo Mixer Tools -->

<svg
   fill="#000000"
   height="255.80496"
   width="211.89574"
   version="1.1"
   id="Capa_1"
   viewBox="0 0 14.038093 16.947079"
   xml:space="preserve"
   xmlns="http://www.w3.org/2000/svg"
   xmlns:svg="http://www.w3.org/2000/svg"><defs
   id="defs17">
	
</defs>
<g
   id="g10"
   transform="translate(-13.025715,-10.442952)">
		
		
		<path
   fill="#ffffff"
   d="m 24.818508,25.144727 c -2.637278,2.637278 -6.910197,2.637274 -9.547491,-1.9e-5 -2.637269,-2.637271 -2.637272,-6.91019 5e-6,-9.547466 l 4.773731,-4.773732 4.773731,4.773731 c 2.637294,2.637294 2.637297,6.910212 2.4e-5,9.547486 z"
   class="svelte-158gwer"
   id="path2"
   style="stroke:#000000;stroke-width:0.53819;stroke-opacity:1" />
		<g
   id="g1055"
   transform="matrix(0.52092163,0,0,0.52092163,6.3093604,5.0029922)"><polygon
     points="20.807,34 22.541,34 22.541,26.863 25.084,26.863 25.084,25.41 18.258,25.41 18.258,26.863 20.807,26.863 "
     id="polygon6" /><polygon
     points="34.477,34 34.477,25.41 31.875,25.41 30.334,31.27 28.775,25.41 26.18,25.41 26.18,34 27.791,34 27.791,27.238 29.49,34 31.16,34 32.865,27.238 32.865,34 "
     id="polygon8" /></g>
	</g>
</svg>
